ScienceGothic-LtS.ufo
<glyph name="exclam" format="2">
  <advance width="605"/>
  <unicode hex="0021"/>
  <outline>
    <contour>
      <point x="137.807" y="22" type="line"/>
      <point x="145.807" y="64" type="line" smooth="yes"/>
      <point x="147.807" y="74"/>
      <point x="149.807" y="84"/>
      <point x="155.807" y="89"/>
      <point x="165.807" y="90"/>
      <point x="175.807" y="90" type="qcurve" smooth="yes"/>
      <point x="217.807" y="90" type="line" smooth="yes"/>
      <point x="227.807" y="90"/>
      <point x="237.807" y="89"/>
      <point x="241.807" y="84"/>
      <point x="241.807" y="74"/>
      <point x="239.807" y="64" type="qcurve" smooth="yes"/>
      <point x="231.807" y="22" type="line"/>
      <point x="230.807" y="12"/>
      <point x="227.807" y="2"/>
      <point x="221.807" y="-3"/>
      <point x="211.807" y="-4"/>
      <point x="201.807" y="-4" type="qcurve" smooth="yes"/>
      <point x="159.807" y="-4" type="line" smooth="yes"/>
      <point x="149.807" y="-4"/>
      <point x="139.807" y="-3"/>
      <point x="135.807" y="2"/>
      <point x="136.807" y="12"/>
      <point x="137.807" y="22" type="qcurve"/>
    </contour>
    <contour>
      <point x="220.807" y="330" type="line"/>
      <point x="405.807" y="1400" type="line"/>
      <point x="445.807" y="1400" type="line"/>
      <point x="256.807" y="330" type="line"/>
    </contour>
  </outline>
</glyph>
<glyph name="quotesingle" format="2">
  <advance width="184"/>
  <unicode hex="0027"/>
  <outline>
    <contour>
      <point x="134.634" y="1036" type="line"/>
      <point x="204.634" y="1433" type="line" smooth="yes"/>
      <point x="205.634" y="1439"/>
      <point x="207.634" y="1446"/>
      <point x="212.634" y="1450"/>
      <point x="220.634" y="1451"/>
      <point x="226.634" y="1451" type="qcurve"/>
      <point x="228.634" y="1451" type="line"/>
      <point x="234.634" y="1451"/>
      <point x="242.634" y="1450"/>
      <point x="245.634" y="1446"/>
      <point x="245.634" y="1439"/>
      <point x="244.634" y="1433" type="qcurve" smooth="yes"/>
      <point x="174.634" y="1036" type="line"/>
      <point x="141.634" y="905" type="line"/>
      <point x="121.634" y="905" type="line"/>
    </contour>
  </outline>
</glyph>
<glyph name="two" format="2">
  <advance width="1616"/>
  <unicode hex="0032"/>
  <outline>
    <contour>
      <point x="162" y="0" type="line"/>
      <point x="193" y="177" type="line" smooth="yes"/>
      <point x="203" y="233"/>
      <point x="238" y="325"/>
      <point x="302" y="403"/>
      <point x="401" y="469"/>
      <point x="474" y="498" type="qcurve" smooth="yes"/>
      <point x="1096" y="742" type="line" smooth="yes"/>
      <point x="1174" y="772"/>
      <point x="1277" y="829"/>
      <point x="1342" y="895"/>
      <point x="1377" y="977"/>
      <point x="1387" y="1034" type="qcurve" smooth="yes"/>
      <point x="1401" y="1109" type="line" smooth="yes"/>
      <point x="1423" y="1235"/>
      <point x="1322" y="1364"/>
      <point x="1190" y="1364" type="qcurve" smooth="yes"/>
      <point x="702" y="1364" type="line" smooth="yes"/>
      <point x="569" y="1364"/>
      <point x="425" y="1236"/>
      <point x="403" y="1109" type="qcurve" smooth="yes"/>
      <point x="385" y="1010" type="line"/>
      <point x="346" y="1018" type="line"/>
      <point x="361" y="1107" type="line" smooth="yes"/>
      <point x="374" y="1179"/>
      <point x="428" y="1288"/>
      <point x="513" y="1362"/>
      <point x="630" y="1400"/>
      <point x="705" y="1400" type="qcurve" smooth="yes"/>
      <point x="1199" y="1400" type="line" smooth="yes"/>
      <point x="1274" y="1400"/>
      <point x="1377" y="1362"/>
      <point x="1437" y="1288"/>
      <point x="1453" y="1179"/>
      <point x="1441" y="1107" type="qcurve" smooth="yes"/>
      <point x="1428" y="1030" type="line" smooth="yes"/>
      <point x="1418" y="969"/>
      <point x="1377" y="877"/>
      <point x="1303" y="802"/>
      <point x="1192" y="739"/>
      <point x="1112" y="708" type="qcurve" smooth="yes"/>
      <point x="476" y="459" type="line" smooth="yes"/>
      <point x="414" y="435"/>
      <point x="329" y="377"/>
      <point x="274" y="307"/>
      <point x="242" y="223"/>
      <point x="233" y="172" type="qcurve" smooth="yes"/>
      <point x="209" y="36" type="line"/>
      <point x="1109" y="36" type="line" smooth="yes"/>
      <point x="1166" y="36"/>
      <point x="1245" y="100"/>
      <point x="1254" y="151" type="qcurve" smooth="yes"/>
      <point x="1267" y="226" type="line"/>
      <point x="1306" y="216" type="line"/>
      <point x="1295" y="153" type="line" smooth="yes"/>
      <point x="1289" y="119"/>
      <point x="1256" y="63"/>
      <point x="1207" y="22"/>
      <point x="1143" y="0"/>
      <point x="1105" y="0" type="qcurve" smooth="yes"/>
    </contour>
  </outline>
</glyph>
<glyph name="eight" format="2">
  <advance width="1695"/>
  <unicode hex="0038"/>
  <outline>
    <contour>
      <point x="224" y="278" type="line" smooth="yes"/>
      <point x="211" y="207"/>
      <point x="241" y="113"/>
      <point x="311" y="58"/>
      <point x="416" y="36"/>
      <point x="479" y="36" type="qcurve" smooth="yes"/>
      <point x="987" y="36" type="line" smooth="yes"/>
      <point x="1050" y="36"/>
      <point x="1163" y="58"/>
      <point x="1253" y="113"/>
      <point x="1315" y="207"/>
      <point x="1328" y="278" type="qcurve" smooth="yes"/>
      <point x="1361" y="470" type="line" smooth="yes"/>
      <point x="1374" y="546"/>
      <point x="1332" y="635"/>
      <point x="1258" y="681"/>
      <point x="1172" y="694"/>
      <point x="1142" y="694" type="qcurve" smooth="yes"/>
      <point x="554" y="694" type="line" smooth="yes"/>
      <point x="524" y="694"/>
      <point x="433" y="681"/>
      <point x="343" y="635"/>
      <point x="270" y="546"/>
      <point x="257" y="470" type="qcurve" smooth="yes"/>
    </contour>
    <contour>
      <point x="1447" y="1134" type="line" smooth="yes"/>
      <point x="1456" y="1186"/>
      <point x="1437" y="1271"/>
      <point x="1379" y="1331"/>
      <point x="1280" y="1364"/>
      <point x="1209" y="1364" type="qcurve" smooth="yes"/>
      <point x="721" y="1364" type="line" smooth="yes"/>
      <point x="650" y="1364"/>
      <point x="539" y="1331"/>
      <point x="460" y="1271"/>
      <point x="412" y="1186"/>
      <point x="403" y="1134" type="qcurve" smooth="yes"/>
      <point x="373" y="962" type="line" smooth="yes"/>
      <point x="364" y="910"/>
      <point x="379" y="824"/>
      <point x="435" y="763"/>
      <point x="535" y="730"/>
      <point x="610" y="730" type="qcurve" smooth="yes"/>
      <point x="1098" y="730" type="line" smooth="yes"/>
      <point x="1173" y="730"/>
      <point x="1284" y="763"/>
      <point x="1362" y="824"/>
      <point x="1408" y="910"/>
      <point x="1417" y="962" type="qcurve" smooth="yes"/>
    </contour>
    <contour>
      <point x="184" y="280" type="line"/>
      <point x="215" y="458" type="line" smooth="yes"/>
      <point x="227" y="526"/>
      <point x="281" y="620"/>
      <point x="355" y="681"/>
      <point x="441" y="712"/>
      <point x="484" y="716" type="qcurve"/>
      <point x="442" y="721"/>
      <point x="378" y="761"/>
      <point x="338" y="826"/>
      <point x="324" y="912"/>
      <point x="333" y="964" type="qcurve" smooth="yes"/>
      <point x="363" y="1132" type="line" smooth="yes"/>
      <point x="374" y="1194"/>
      <point x="430" y="1293"/>
      <point x="522" y="1362"/>
      <point x="648" y="1400"/>
      <point x="727" y="1400" type="qcurve" smooth="yes"/>
      <point x="1215" y="1400" type="line" smooth="yes"/>
      <point x="1295" y="1400"/>
      <point x="1407" y="1362"/>
      <point x="1475" y="1293"/>
      <point x="1498" y="1194"/>
      <point x="1487" y="1132" type="qcurve" smooth="yes"/>
      <point x="1457" y="964" type="line" smooth="yes"/>
      <point x="1448" y="912"/>
      <point x="1404" y="826"/>
      <point x="1341" y="761"/>
      <point x="1263" y="721"/>
      <point x="1220" y="716" type="qcurve"/>
      <point x="1262" y="712"/>
      <point x="1337" y="681"/>
      <point x="1389" y="620"/>
      <point x="1411" y="526"/>
      <point x="1399" y="458" type="qcurve" smooth="yes"/>
      <point x="1368" y="280" type="line" smooth="yes"/>
      <point x="1354" y="200"/>
      <point x="1284" y="92"/>
      <point x="1182" y="27"/>
      <point x="1054" y="0"/>
      <point x="981" y="0" type="qcurve" smooth="yes"/>
      <point x="473" y="0" type="line" smooth="yes"/>
      <point x="401" y="0"/>
      <point x="282" y="27"/>
      <point x="203" y="92"/>
      <point x="170" y="200"/>
      <point x="184" y="280" type="qcurve"/>
    </contour>
  </outline>
</glyph>
<glyph name="less" format="2">
  <advance width="1536"/>
  <unicode hex="003C"/>
  <outline>
    <contour>
      <point x="1230.54" y="0" type="line"/>
      <point x="1237.54" y="40" type="line"/>
      <point x="212.541" y="584" type="line"/>
      <point x="1427.54" y="1128" type="line"/>
      <point x="1434.54" y="1168" type="line"/>
      <point x="169.541" y="602" type="line"/>
      <point x="163.541" y="566" type="line"/>
    </contour>
  </outline>
</glyph>
<glyph name="at" format="2">
  <advance width="2048" height="1020.84"/>
  <unicode hex="0040"/>
  <outline>
    <contour>
      <point x="161.891" y="82" type="line"/>
      <point x="314.891" y="957" type="line" smooth="yes"/>
      <point x="325.891" y="1022"/>
      <point x="379.891" y="1124"/>
      <point x="460.891" y="1193"/>
      <point x="568.891" y="1229"/>
      <point x="633.891" y="1229" type="qcurve" smooth="yes"/>
      <point x="1643.89" y="1229" type="line" smooth="yes"/>
      <point x="1708.89" y="1229"/>
      <point x="1803.89" y="1193"/>
      <point x="1860.89" y="1124"/>
      <point x="1878.89" y="1023"/>
      <point x="1866.89" y="957" type="qcurve" smooth="yes"/>
      <point x="1757.89" y="332" type="line" smooth="yes"/>
      <point x="1746.89" y="267"/>
      <point x="1696.89" y="175"/>
      <point x="1628.89" y="117"/>
      <point x="1546.89" y="90"/>
      <point x="1503.89" y="90" type="qcurve" smooth="yes"/>
      <point x="1417.89" y="90" type="line" smooth="yes"/>
      <point x="1374.89" y="90"/>
      <point x="1313.89" y="110"/>
      <point x="1272.89" y="143"/>
      <point x="1249.89" y="184"/>
      <point x="1244.89" y="204" type="qcurve"/>
      <point x="1236.89" y="196"/>
      <point x="1216.89" y="183"/>
      <point x="1190.89" y="173"/>
      <point x="1159.89" y="167"/>
      <point x="1141.89" y="167" type="qcurve" smooth="yes"/>
      <point x="758.891" y="167" type="line" smooth="yes"/>
      <point x="729.891" y="167"/>
      <point x="687.891" y="182"/>
      <point x="662.891" y="212"/>
      <point x="655.891" y="256"/>
      <point x="660.891" y="285" type="qcurve" smooth="yes"/>
      <point x="741.891" y="752" type="line" smooth="yes"/>
      <point x="746.891" y="781"/>
      <point x="769.891" y="825"/>
      <point x="805.891" y="855"/>
      <point x="852.891" y="871"/>
      <point x="881.891" y="871" type="qcurve" smooth="yes"/>
      <point x="1298.89" y="871" type="line" smooth="yes"/>
      <point x="1318.89" y="871"/>
      <point x="1341.89" y="863"/>
      <point x="1345.89" y="856" type="qcurve"/>
      <point x="1347.89" y="868" type="line"/>
      <point x="1383.89" y="868" type="line"/>
      <point x="1277.89" y="255" type="line" smooth="yes"/>
      <point x="1274.89" y="236"/>
      <point x="1283.89" y="190"/>
      <point x="1316.89" y="149"/>
      <point x="1376.89" y="122"/>
      <point x="1422.89" y="122" type="qcurve" smooth="yes"/>
      <point x="1508.89" y="122" type="line" smooth="yes"/>
      <point x="1544.89" y="122"/>
      <point x="1612.89" y="144"/>
      <point x="1669.89" y="193"/>
      <point x="1711.89" y="274"/>
      <point x="1721.89" y="332" type="qcurve" smooth="yes"/>
      <point x="1830.89" y="957" type="line"/>
      <point x="1841.89" y="1016"/>
      <point x="1826.89" y="1106"/>
      <point x="1778.89" y="1166"/>
      <point x="1695.89" y="1197"/>
      <point x="1637.89" y="1197" type="qcurve" smooth="yes"/>
      <point x="627.891" y="1197" type="line" smooth="yes"/>
      <point x="569.891" y="1197"/>
      <point x="476.891" y="1167"/>
      <point x="406.891" y="1107"/>
      <point x="361.891" y="1017"/>
      <point x="350.891" y="957" type="qcurve" smooth="yes"/>
      <point x="197.891" y="82" type="line" smooth="yes"/>
      <point x="187.891" y="23"/>
      <point x="201.891" y="-67"/>
      <point x="250.891" y="-127"/>
      <point x="333.891" y="-157"/>
      <point x="391.891" y="-157" type="qcurve" smooth="yes"/>
      <point x="1515.89" y="-157" type="line"/>
      <point x="1509.89" y="-189" type="line"/>
      <point x="385.891" y="-189" type="line" smooth="yes"/>
      <point x="320.891" y="-189"/>
      <point x="225.891" y="-153"/>
      <point x="168.891" y="-84"/>
      <point x="150.891" y="17"/>
      <point x="161.891" y="82" type="qcurve"/>
    </contour>
    <contour>
      <point x="696.891" y="290" type="line" smooth="yes"/>
      <point x="688.891" y="245"/>
      <point x="722.891" y="199"/>
      <point x="766.891" y="199" type="qcurve" smooth="yes"/>
      <point x="1146.89" y="199" type="line" smooth="yes"/>
      <point x="1190.89" y="199"/>
      <point x="1239.89" y="245"/>
      <point x="1247.89" y="290" type="qcurve" smooth="yes"/>
      <point x="1342.89" y="838" type="line"/>
      <point x="877.891" y="838" type="line" smooth="yes"/>
      <point x="833.891" y="838"/>
      <point x="783.891" y="792"/>
      <point x="775.891" y="747" type="qcurve" smooth="yes"/>
    </contour>
  </outline>
</glyph>
<glyph name="B" format="2">
  <advance width="1695"/>
  <unicode hex="0042"/>
  <anchor x="848" y="1550" name="top"/>
  <anchor x="848" y="-150" name="bottom"/>
  <outline>
    <contour>
      <point x="165" y="0" type="line"/>
      <point x="1054" y="0" type="line" smooth="yes"/>
      <point x="1127" y="0"/>
      <point x="1243" y="37"/>
      <point x="1329" y="110"/>
      <point x="1385" y="220"/>
      <point x="1398" y="293" type="qcurve" smooth="yes"/>
      <point x="1429" y="472" type="line" smooth="yes"/>
      <point x="1439" y="527"/>
      <point x="1431" y="616"/>
      <point x="1397" y="684"/>
      <point x="1337" y="730"/>
      <point x="1295" y="741" type="qcurve"/>
      <point x="1336" y="752"/>
      <point x="1405" y="798"/>
      <point x="1459" y="865"/>
      <point x="1497" y="952"/>
      <point x="1506" y="1003" type="qcurve" smooth="yes"/>
      <point x="1524" y="1107" type="line" smooth="yes"/>
      <point x="1537" y="1180"/>
      <point x="1519" y="1290"/>
      <point x="1459" y="1363"/>
      <point x="1355" y="1400"/>
      <point x="1282" y="1400" type="qcurve" smooth="yes"/>
      <point x="409" y="1400" type="line"/>
    </contour>
    <contour>
      <point x="211" y="36" type="line"/>
      <point x="331" y="720" type="line"/>
      <point x="1179" y="720" type="line" smooth="yes"/>
      <point x="1303" y="720"/>
      <point x="1411" y="594"/>
      <point x="1389" y="472" type="qcurve"/>
      <point x="1358" y="291" type="line" smooth="yes"/>
      <point x="1347" y="227"/>
      <point x="1298" y="131"/>
      <point x="1223" y="67"/>
      <point x="1119" y="36"/>
      <point x="1053" y="36" type="qcurve" smooth="yes"/>
    </contour>
    <contour>
      <point x="337" y="756" type="line"/>
      <point x="443" y="1364" type="line"/>
      <point x="1270" y="1364" type="line" smooth="yes"/>
      <point x="1336" y="1364"/>
      <point x="1428" y="1333"/>
      <point x="1481" y="1269"/>
      <point x="1496" y="1174"/>
      <point x="1485" y="1109" type="qcurve" smooth="yes"/>
      <point x="1466" y="1003" type="line" smooth="yes"/>
      <point x="1457" y="948"/>
      <point x="1411" y="857"/>
      <point x="1340" y="792"/>
      <point x="1242" y="756"/>
      <point x="1180" y="756" type="qcurve" smooth="yes"/>
    </contour>
  </outline>
</glyph>
<glyph name="E" format="2">
  <advance width="1434"/>
  <unicode hex="0045"/>
  <anchor x="1008" y="1550" name="top"/>
  <anchor x="711" y="-150" name="bottom"/>
  <anchor x="1303" y="0" name="ogonek"/>
  <outline>
    <contour>
      <point x="165" y="0" type="line"/>
      <point x="409" y="1400" type="line"/>
      <point x="1533" y="1400" type="line"/>
      <point x="1527" y="1364" type="line"/>
      <point x="443" y="1364" type="line"/>
      <point x="333" y="736" type="line"/>
      <point x="1031" y="736" type="line"/>
      <point x="1025" y="700" type="line"/>
      <point x="327" y="700" type="line"/>
      <point x="211" y="36" type="line"/>
      <point x="1315" y="36" type="line"/>
      <point x="1309" y="0" type="line"/>
    </contour>
  </outline>
</glyph>
<glyph name="W" format="2">
  <advance width="1766"/>
  <unicode hex="0057"/>
  <anchor x="883" y="-150" name="bottom"/>
  <anchor x="883" y="1550" name="top"/>
  <outline>
    <contour>
      <point x="324.858" y="0" type="line"/>
      <point x="343.858" y="0" type="line"/>
      <point x="1000.86" y="1340" type="line"/>
      <point x="1189.86" y="0" type="line"/>
      <point x="1206.86" y="0" type="line"/>
      <point x="1892.86" y="1400" type="line"/>
      <point x="1853.86" y="1400" type="line"/>
      <point x="1215.86" y="97" type="line"/>
      <point x="1031.86" y="1400" type="line"/>
      <point x="989.858" y="1400" type="line"/>
      <point x="351.858" y="97" type="line"/>
      <point x="167.858" y="1400" type="line"/>
      <point x="126.858" y="1400" type="line"/>
    </contour>
  </outline>
</glyph>
<glyph name="X" format="2">
  <advance width="1185"/>
  <unicode hex="0058"/>
  <anchor x="745" y="1550" name="top"/>
  <anchor x="448" y="-150" name="bottom"/>
  <outline>
    <contour>
      <point x="-116.142" y="0" type="line"/>
      <point x="-66.1422" y="0" type="line"/>
      <point x="593.858" y="684" type="line"/>
      <point x="1017.86" y="0" type="line"/>
      <point x="1064.86" y="0" type="line"/>
      <point x="623.858" y="712" type="line"/>
      <point x="1306.86" y="1400" type="line"/>
      <point x="1256.86" y="1400" type="line"/>
      <point x="602.858" y="742" type="line"/>
      <point x="174.858" y="1400" type="line"/>
      <point x="126.858" y="1400" type="line"/>
      <point x="572.858" y="715" type="line"/>
    </contour>
  </outline>
</glyph>
<glyph name="x" format="2">
  <advance width="894"/>
  <unicode hex="0078"/>
  <anchor x="530" y="1150" name="top"/>
  <anchor x="303" y="-150" name="bottom"/>
  <outline>
    <contour>
      <point x="-120" y="0" type="line"/>
      <point x="-74" y="0" type="line"/>
      <point x="410" y="480" type="line"/>
      <point x="730" y="0" type="line"/>
      <point x="774" y="0" type="line"/>
      <point x="436" y="506" type="line"/>
      <point x="934" y="1000" type="line"/>
      <point x="889" y="1000" type="line"/>
      <point x="418" y="533" type="line"/>
      <point x="107" y="1000" type="line"/>
      <point x="63" y="1000" type="line"/>
      <point x="392" y="507" type="line"/>
    </contour>
  </outline>
</glyph>
<glyph name="section" format="2">
  <advance width="1416"/>
  <unicode hex="00A7"/>
  <outline>
    <contour>
      <point x="321" y="-181" type="line"/>
      <point x="781" y="-181" type="line" smooth="yes"/>
      <point x="821" y="-181"/>
      <point x="887" y="-160"/>
      <point x="936" y="-118"/>
      <point x="968" y="-56"/>
      <point x="975" y="-16" type="qcurve" smooth="yes"/>
      <point x="1009" y="175" type="line" smooth="yes"/>
      <point x="1017" y="219"/>
      <point x="1001" y="284"/>
      <point x="979" y="305" type="qcurve"/>
      <point x="1016" y="308"/>
      <point x="1077" y="333"/>
      <point x="1124" y="376"/>
      <point x="1154" y="436"/>
      <point x="1161" y="473" type="qcurve" smooth="yes"/>
      <point x="1210" y="756" type="line" smooth="yes"/>
      <point x="1217" y="796"/>
      <point x="1207" y="858"/>
      <point x="1172" y="900"/>
      <point x="1114" y="921"/>
      <point x="1074" y="921" type="qcurve" smooth="yes"/>
      <point x="538" y="921" type="line" smooth="yes"/>
      <point x="465" y="921"/>
      <point x="417" y="991"/>
      <point x="428" y="1057" type="qcurve" smooth="yes"/>
      <point x="458" y="1228" type="line" smooth="yes"/>
      <point x="470" y="1295"/>
      <point x="542" y="1364"/>
      <point x="615" y="1364" type="qcurve" smooth="yes"/>
      <point x="1027" y="1364" type="line" smooth="yes"/>
      <point x="1101" y="1364"/>
      <point x="1148" y="1295"/>
      <point x="1136" y="1228" type="qcurve" smooth="yes"/>
      <point x="1124" y="1155" type="line"/>
      <point x="1165" y="1164" type="line"/>
      <point x="1178" y="1235" type="line" smooth="yes"/>
      <point x="1185" y="1275"/>
      <point x="1174" y="1337"/>
      <point x="1139" y="1379"/>
      <point x="1081" y="1400"/>
      <point x="1041" y="1400" type="qcurve" smooth="yes"/>
      <point x="613" y="1400" type="line" smooth="yes"/>
      <point x="573" y="1400"/>
      <point x="508" y="1379"/>
      <point x="459" y="1337"/>
      <point x="427" y="1275"/>
      <point x="420" y="1235" type="qcurve" smooth="yes"/>
      <point x="387" y="1050" type="line" smooth="yes"/>
      <point x="379" y="1006"/>
      <point x="394" y="941"/>
      <point x="417" y="920" type="qcurve"/>
      <point x="381" y="918"/>
      <point x="320" y="894"/>
      <point x="273" y="852"/>
      <point x="242" y="792"/>
      <point x="236" y="754" type="qcurve"/>
      <point x="186" y="469" type="line" smooth="yes"/>
      <point x="179" y="429"/>
      <point x="190" y="367"/>
      <point x="224" y="325"/>
      <point x="282" y="304"/>
      <point x="322" y="304" type="qcurve" smooth="yes"/>
      <point x="858" y="304" type="line" smooth="yes"/>
      <point x="932" y="304"/>
      <point x="979" y="234"/>
      <point x="967" y="168" type="qcurve" smooth="yes"/>
      <point x="936" y="-9" type="line" smooth="yes"/>
      <point x="925" y="-76"/>
      <point x="854" y="-145"/>
      <point x="780" y="-145" type="qcurve" smooth="yes"/>
      <point x="336" y="-145" type="line" smooth="yes"/>
      <point x="263" y="-145"/>
      <point x="215" y="-76"/>
      <point x="226" y="-9" type="qcurve" smooth="yes"/>
      <point x="241" y="77" type="line"/>
      <point x="200" y="69" type="line"/>
      <point x="185" y="-16" type="line" smooth="yes"/>
      <point x="178" y="-56"/>
      <point x="189" y="-118"/>
      <point x="223" y="-160"/>
      <point x="281" y="-181"/>
      <point x="321" y="-181" type="qcurve"/>
    </contour>
    <contour>
      <point x="336" y="340" type="line" smooth="yes"/>
      <point x="263" y="340"/>
      <point x="216" y="410"/>
      <point x="227" y="476" type="qcurve" smooth="yes"/>
      <point x="275" y="749" type="line"/>
      <point x="286" y="816"/>
      <point x="358" y="885"/>
      <point x="431" y="885" type="qcurve" smooth="yes"/>
      <point x="1059" y="885" type="line" smooth="yes"/>
      <point x="1133" y="885"/>
      <point x="1180" y="815"/>
      <point x="1169" y="749" type="qcurve" smooth="yes"/>
      <point x="1121" y="476" type="line"/>
      <point x="1110" y="409"/>
      <point x="1038" y="340"/>
      <point x="964" y="340" type="qcurve" smooth="yes"/>
    </contour>
  </outline>
</glyph>
<glyph name="copyright" format="2">
  <advance width="1807"/>
  <unicode hex="00A9"/>
  <outline>
    <contour>
      <point x="534" y="525" type="line"/>
      <point x="595" y="875" type="line" smooth="yes"/>
      <point x="602" y="915"/>
      <point x="634" y="977"/>
      <point x="683" y="1019"/>
      <point x="749" y="1040"/>
      <point x="789" y="1040" type="qcurve" smooth="yes"/>
      <point x="1104" y="1040" type="line" smooth="yes"/>
      <point x="1144" y="1040"/>
      <point x="1202" y="1019"/>
      <point x="1236" y="977"/>
      <point x="1247" y="915"/>
      <point x="1240" y="875" type="qcurve" smooth="yes"/>
      <point x="1234" y="840" type="line"/>
      <point x="1196" y="832" type="line"/>
      <point x="1203" y="872" type="line" smooth="yes"/>
      <point x="1215" y="939"/>
      <point x="1164" y="1008"/>
      <point x="1098" y="1008" type="qcurve" smooth="yes"/>
      <point x="783" y="1008" type="line" smooth="yes"/>
      <point x="717" y="1008"/>
      <point x="642" y="939"/>
      <point x="630" y="872" type="qcurve" smooth="yes"/>
      <point x="570" y="528" type="line" smooth="yes"/>
      <point x="559" y="461"/>
      <point x="609" y="392"/>
      <point x="675" y="392" type="qcurve" smooth="yes"/>
      <point x="992" y="392" type="line" smooth="yes"/>
      <point x="1058" y="392"/>
      <point x="1134" y="461"/>
      <point x="1145" y="528" type="qcurve" smooth="yes"/>
      <point x="1154" y="580" type="line"/>
      <point x="1188" y="570" type="line"/>
      <point x="1181" y="525" type="line" smooth="yes"/>
      <point x="1174" y="485"/>
      <point x="1142" y="423"/>
      <point x="1092" y="381"/>
      <point x="1027" y="360"/>
      <point x="987" y="360" type="qcurve" smooth="yes"/>
      <point x="670" y="360" type="line" smooth="yes"/>
      <point x="630" y="360"/>
      <point x="572" y="381"/>
      <point x="538" y="423"/>
      <point x="527" y="485"/>
      <point x="534" y="525" type="qcurve"/>
    </contour>
    <contour>
      <point x="329" y="1037" type="line" smooth="yes"/>
      <point x="341" y="1109"/>
      <point x="396" y="1218"/>
      <point x="481" y="1292"/>
      <point x="598" y="1330"/>
      <point x="673" y="1330" type="qcurve" smooth="yes"/>
      <point x="1331" y="1330" type="line" smooth="yes"/>
      <point x="1406" y="1330"/>
      <point x="1510" y="1292"/>
      <point x="1569" y="1218"/>
      <point x="1585" y="1109"/>
      <point x="1573" y="1037" type="qcurve" smooth="yes"/>
      <point x="1455" y="363" type="line" smooth="yes"/>
      <point x="1443" y="291"/>
      <point x="1388" y="182"/>
      <point x="1303" y="108"/>
      <point x="1186" y="70"/>
      <point x="1111" y="70" type="qcurve" smooth="yes"/>
      <point x="453" y="70" type="line" smooth="yes"/>
      <point x="378" y="70"/>
      <point x="274" y="108"/>
      <point x="215" y="182"/>
      <point x="199" y="291"/>
      <point x="211" y="363" type="qcurve" smooth="yes"/>
    </contour>
    <contour>
      <point x="365" y="1039" type="line"/>
      <point x="247" y="361" type="line" smooth="yes"/>
      <point x="236" y="298"/>
      <point x="251" y="201"/>
      <point x="303" y="136"/>
      <point x="395" y="102"/>
      <point x="461" y="102" type="qcurve" smooth="yes"/>
      <point x="1115" y="102" type="line" smooth="yes"/>
      <point x="1181" y="102"/>
      <point x="1284" y="136"/>
      <point x="1360" y="201"/>
      <point x="1408" y="298"/>
      <point x="1419" y="361" type="qcurve" smooth="yes"/>
      <point x="1537" y="1039" type="line" smooth="yes"/>
      <point x="1548" y="1102"/>
      <point x="1534" y="1199"/>
      <point x="1482" y="1264"/>
      <point x="1390" y="1298"/>
      <point x="1324" y="1298" type="qcurve" smooth="yes"/>
      <point x="670" y="1298" type="line" smooth="yes"/>
      <point x="604" y="1298"/>
      <point x="501" y="1264"/>
      <point x="425" y="1199"/>
      <point x="376" y="1102"/>
      <point x="365" y="1039" type="qcurve"/>
    </contour>
  </outline>
</glyph>
<glyph name="plusminus" format="2">
  <advance width="1543"/>
  <unicode hex="00B1"/>
  <outline>
    <contour>
      <point x="1358" y="726" type="line"/>
      <point x="1351" y="690" type="line"/>
      <point x="788" y="690" type="line"/>
      <point x="711" y="248" type="line"/>
      <point x="671" y="248" type="line"/>
      <point x="748" y="690" type="line"/>
      <point x="185" y="690" type="line"/>
      <point x="192" y="726" type="line"/>
      <point x="755" y="726" type="line"/>
      <point x="832" y="1168" type="line"/>
      <point x="872" y="1168" type="line"/>
      <point x="795" y="726" type="line"/>
    </contour>
    <contour>
      <point x="71" y="0" type="line"/>
      <point x="78" y="36" type="line"/>
      <point x="1244" y="36" type="line"/>
      <point x="1237" y="0" type="line"/>
    </contour>
  </outline>
</glyph>
<glyph name="AE" format="2">
  <advance width="2210"/>
  <unicode hex="00C6"/>
  <anchor x="1344" y="1550" name="top"/>
  <anchor x="957" y="-150" name="bottom"/>
  <outline>
    <contour>
      <point x="-120" y="0" type="line"/>
      <point x="890" y="1400" type="line"/>
      <point x="2309" y="1400" type="line"/>
      <point x="2303" y="1364" type="line"/>
      <point x="1219" y="1364" type="line"/>
      <point x="1109" y="736" type="line"/>
      <point x="1807" y="736" type="line"/>
      <point x="1801" y="700" type="line"/>
      <point x="1103" y="700" type="line"/>
      <point x="987" y="36" type="line"/>
      <point x="2091" y="36" type="line"/>
      <point x="2085" y="0" type="line"/>
      <point x="941" y="0" type="line"/>
      <point x="1009" y="388" type="line"/>
      <point x="205" y="388" type="line"/>
      <point x="-75" y="0" type="line"/>
    </contour>
    <contour>
      <point x="231" y="424" type="line"/>
      <point x="1015" y="424" type="line"/>
      <point x="1179" y="1364" type="line"/>
      <point x="909" y="1364" type="line"/>
    </contour>
  </outline>
</glyph>
<glyph name="multiply" format="2">
  <advance width="1263"/>
  <unicode hex="00D7"/>
  <outline>
    <contour>
      <point x="116" y="139" type="line"/>
      <point x="94" y="166" type="line"/>
      <point x="588" y="586" type="line"/>
      <point x="241" y="1006" type="line"/>
      <point x="272" y="1033" type="line"/>
      <point x="619" y="613" type="line"/>
      <point x="1112" y="1033" type="line"/>
      <point x="1134" y="1006" type="line"/>
      <point x="641" y="586" type="line"/>
      <point x="987" y="167" type="line"/>
      <point x="956" y="140" type="line"/>
      <point x="610" y="559" type="line"/>
    </contour>
  </outline>
  <guideline x="116" y="139" angle="40.4478" color="1,0,0,1"/>
  <guideline x="241" y="1006" angle="309.584" color="1,0,0,1"/>
</glyph>
<glyph name="Thorn" format="2">
  <advance width="1353"/>
  <unicode hex="00DE"/>
  <outline>
    <contour>
      <point x="122" y="0" type="line"/>
      <point x="162" y="0" type="line"/>
      <point x="219" y="327" type="line"/>
      <point x="770" y="327" type="line" smooth="yes"/>
      <point x="845" y="327"/>
      <point x="962" y="365"/>
      <point x="1047" y="439"/>
      <point x="1102" y="548"/>
      <point x="1114" y="620" type="qcurve" smooth="yes"/>
      <point x="1151" y="830" type="line" smooth="yes"/>
      <point x="1163" y="902"/>
      <point x="1147" y="1011"/>
      <point x="1088" y="1085"/>
      <point x="984" y="1123"/>
      <point x="909" y="1123" type="qcurve" smooth="yes"/>
      <point x="358" y="1123" type="line"/>
      <point x="406" y="1400" type="line"/>
      <point x="366" y="1400" type="line"/>
    </contour>
    <contour>
      <point x="225" y="363" type="line"/>
      <point x="352" y="1087" type="line"/>
      <point x="901" y="1087" type="line" smooth="yes"/>
      <point x="967" y="1087"/>
      <point x="1058" y="1055"/>
      <point x="1109" y="990"/>
      <point x="1122" y="895"/>
      <point x="1111" y="832" type="qcurve" smooth="yes"/>
      <point x="1074" y="618" type="line" smooth="yes"/>
      <point x="1063" y="555"/>
      <point x="1016" y="460"/>
      <point x="942" y="395"/>
      <point x="840" y="363"/>
      <point x="774" y="363" type="qcurve" smooth="yes"/>
    </contour>
  </outline>
  <guideline x="676.5" name="halfwidth" color="0.4,0.4,0.4,1"/>
</glyph>
<glyph name="divide" format="2">
  <advance width="1535"/>
  <unicode hex="00F7"/>
  <outline>
    <contour>
      <point x="767" y="944" type="line"/>
      <point x="773" y="980" type="line" smooth="yes"/>
      <point x="775" y="990"/>
      <point x="778" y="1001"/>
      <point x="782" y="1007"/>
      <point x="788" y="1009"/>
      <point x="793" y="1009" type="qcurve" smooth="yes"/>
      <point x="857" y="1009" type="line" smooth="yes"/>
      <point x="862" y="1009"/>
      <point x="868" y="1007"/>
      <point x="870" y="1001"/>
      <point x="869" y="990"/>
      <point x="867" y="980" type="qcurve" smooth="yes"/>
      <point x="861" y="944" type="line" smooth="yes"/>
      <point x="859" y="934"/>
      <point x="856" y="923"/>
      <point x="852" y="917"/>
      <point x="846" y="915"/>
      <point x="841" y="915" type="qcurve" smooth="yes"/>
      <point x="776" y="915" type="line" smooth="yes"/>
      <point x="771" y="915"/>
      <point x="766" y="917"/>
      <point x="764" y="923"/>
      <point x="765" y="934"/>
      <point x="767" y="944" type="qcurve"/>
    </contour>
    <contour>
      <point x="164" y="569" type="line"/>
      <point x="170" y="605" type="line"/>
      <point x="1336" y="605" type="line"/>
      <point x="1330" y="569" type="line"/>
    </contour>
    <contour>
      <point x="636" y="192" type="line"/>
      <point x="642" y="228" type="line" smooth="yes"/>
      <point x="644" y="238"/>
      <point x="646" y="249"/>
      <point x="651" y="255"/>
      <point x="657" y="257"/>
      <point x="662" y="257" type="qcurve" smooth="yes"/>
      <point x="726" y="257" type="line" smooth="yes"/>
      <point x="731" y="257"/>
      <point x="736" y="255"/>
      <point x="738" y="249"/>
      <point x="738" y="238"/>
      <point x="736" y="228" type="qcurve" smooth="yes"/>
      <point x="730" y="192" type="line" smooth="yes"/>
      <point x="728" y="182"/>
      <point x="725" y="171"/>
      <point x="720" y="165"/>
      <point x="714" y="163"/>
      <point x="709" y="163" type="qcurve" smooth="yes"/>
      <point x="644" y="163" type="line" smooth="yes"/>
      <point x="639" y="163"/>
      <point x="634" y="165"/>
      <point x="633" y="171"/>
      <point x="634" y="182"/>
      <point x="636" y="192" type="qcurve"/>
    </contour>
  </outline>
</glyph>
<glyph name="dcroat" format="2">
  <advance width="1360"/>
  <unicode hex="0111"/>
  <anchor x="827" y="1598" name="top"/>
  <outline>
    <contour>
      <point x="272" y="-4" type="line" smooth="yes"/>
      <point x="232" y="-4"/>
      <point x="174" y="17"/>
      <point x="140" y="59"/>
      <point x="129" y="121"/>
      <point x="136" y="161" type="qcurve" smooth="yes"/>
      <point x="253" y="838" type="line" smooth="yes"/>
      <point x="260" y="879"/>
      <point x="292" y="941"/>
      <point x="341" y="983"/>
      <point x="406" y="1004"/>
      <point x="446" y="1004" type="qcurve" smooth="yes"/>
      <point x="1057" y="1004" type="line" smooth="yes"/>
      <point x="1083" y="1004"/>
      <point x="1110" y="996"/>
      <point x="1116" y="988" type="qcurve"/>
      <point x="1151" y="1188" type="line"/>
      <point x="768" y="1188" type="line"/>
      <point x="773" y="1220" type="line"/>
      <point x="1157" y="1220" type="line"/>
      <point x="1197" y="1448" type="line"/>
      <point x="1233" y="1448" type="line"/>
      <point x="1193" y="1220" type="line"/>
      <point x="1396" y="1220" type="line"/>
      <point x="1391" y="1188" type="line"/>
      <point x="1188" y="1188" type="line"/>
      <point x="982" y="0" type="line"/>
      <point x="946" y="0" type="line"/>
      <point x="948" y="12" type="line"/>
      <point x="940" y="4"/>
      <point x="911" y="-4"/>
      <point x="885" y="-4" type="qcurve" smooth="yes"/>
    </contour>
    <contour>
      <point x="1114" y="972" type="line"/>
      <point x="441" y="972" type="line" smooth="yes"/>
      <point x="375" y="972"/>
      <point x="300" y="902"/>
      <point x="289" y="835" type="qcurve" smooth="yes"/>
      <point x="173" y="164" type="line" smooth="yes"/>
      <point x="162" y="97"/>
      <point x="212" y="28"/>
      <point x="278" y="28" type="qcurve" smooth="yes"/>
      <point x="951" y="28" type="line"/>
    </contour>
  </outline>
</glyph>
<glyph name="Hbar" format="2">
  <advance width="1869"/>
  <unicode hex="0126"/>
  <anchor x="1087" y="1550" name="top"/>
  <anchor x="790" y="-150" name="bottom"/>
  <anchor x="236" y="700" name="left"/>
  <outline>
    <contour>
      <point x="214" y="0" type="line"/>
      <point x="254" y="0" type="line"/>
      <point x="378" y="712" type="line"/>
      <point x="1500" y="712" type="line"/>
      <point x="1376" y="0" type="line"/>
      <point x="1416" y="0" type="line"/>
      <point x="1660" y="1400" type="line"/>
      <point x="1620" y="1400" type="line"/>
      <point x="1506" y="748" type="line"/>
      <point x="384" y="748" type="line"/>
      <point x="498" y="1400" type="line"/>
      <point x="458" y="1400" type="line"/>
    </contour>
    <contour>
      <point x="1696" y="1034" type="line"/>
      <point x="1702" y="1066" type="line"/>
      <point x="300" y="1066" type="line"/>
      <point x="294" y="1034" type="line"/>
    </contour>
  </outline>
  <guideline y="1050" color="1,0,0,1"/>
</glyph>
<glyph name="lslash" format="2">
  <advance width="531"/>
  <unicode hex="0142"/>
  <outline>
    <contour>
      <point x="127" y="0" type="line"/>
      <point x="163" y="0" type="line"/>
      <point x="285" y="701" type="line"/>
      <point x="499" y="774" type="line"/>
      <point x="505" y="808" type="line"/>
      <point x="291" y="735" type="line"/>
      <point x="416" y="1448" type="line"/>
      <point x="380" y="1448" type="line"/>
      <point x="253" y="721" type="line"/>
      <point x="39" y="648" type="line"/>
      <point x="33" y="614" type="line"/>
      <point x="247" y="688" type="line"/>
    </contour>
  </outline>
  <guideline y="1000"/>
  <guideline y="1979"/>
  <guideline y="724"/>
</glyph>
<glyph name="OE" format="2">
  <advance width="2601"/>
  <unicode hex="0152"/>
  <outline>
    <contour>
      <point x="441" y="0" type="line"/>
      <point x="2476" y="0" type="line"/>
      <point x="2482" y="36" type="line"/>
      <point x="1378" y="36" type="line"/>
      <point x="1494" y="700" type="line"/>
      <point x="2192" y="700" type="line"/>
      <point x="2198" y="736" type="line"/>
      <point x="1500" y="736" type="line"/>
      <point x="1610" y="1364" type="line"/>
      <point x="2694" y="1364" type="line"/>
      <point x="2700" y="1400" type="line"/>
      <point x="685" y="1400" type="line" smooth="yes"/>
      <point x="610" y="1400"/>
      <point x="493" y="1362"/>
      <point x="408" y="1288"/>
      <point x="354" y="1179"/>
      <point x="341" y="1107" type="qcurve" smooth="yes"/>
      <point x="199" y="293" type="line" smooth="yes"/>
      <point x="187" y="221"/>
      <point x="203" y="112"/>
      <point x="262" y="38"/>
      <point x="366" y="0"/>
      <point x="441" y="0" type="qcurve"/>
    </contour>
    <contour>
      <point x="1338" y="36" type="line"/>
      <point x="449" y="36" type="line" smooth="yes"/>
      <point x="383" y="36"/>
      <point x="292" y="68"/>
      <point x="241" y="133"/>
      <point x="228" y="228"/>
      <point x="239" y="291" type="qcurve" smooth="yes"/>
      <point x="382" y="1109" type="line" smooth="yes"/>
      <point x="393" y="1172"/>
      <point x="440" y="1267"/>
      <point x="513" y="1332"/>
      <point x="615" y="1364"/>
      <point x="681" y="1364" type="qcurve" smooth="yes"/>
      <point x="1570" y="1364" type="line"/>
    </contour>
  </outline>
  <guideline x="1525" y="1109" angle="260.097" color="1,0,0,1"/>
</glyph>
<glyph name="florin" format="2">
  <advance width="1193"/>
  <unicode hex="0192"/>
  <outline>
    <contour>
      <point x="-195" y="-428" type="line"/>
      <point x="-174" y="-396" type="line"/>
      <point x="101" y="-396" type="line" smooth="yes"/>
      <point x="167" y="-396"/>
      <point x="255" y="-326"/>
      <point x="278" y="-260" type="qcurve" smooth="yes"/>
      <point x="653" y="808" type="line"/>
      <point x="371" y="808" type="line"/>
      <point x="382" y="840" type="line"/>
      <point x="664" y="840" type="line"/>
      <point x="820" y="1283" type="line" smooth="yes"/>
      <point x="834" y="1323"/>
      <point x="877" y="1385"/>
      <point x="934" y="1427"/>
      <point x="1003" y="1448"/>
      <point x="1043" y="1448" type="qcurve" smooth="yes"/>
      <point x="1328" y="1448" type="line"/>
      <point x="1306" y="1416" type="line"/>
      <point x="1031" y="1416" type="line" smooth="yes"/>
      <point x="965" y="1416"/>
      <point x="878" y="1346"/>
      <point x="854" y="1280" type="qcurve"/>
      <point x="700" y="840" type="line"/>
      <point x="1074" y="840" type="line"/>
      <point x="1063" y="808" type="line"/>
      <point x="689" y="808" type="line"/>
      <point x="313" y="-263" type="line" smooth="yes"/>
      <point x="299" y="-303"/>
      <point x="256" y="-365"/>
      <point x="199" y="-407"/>
      <point x="130" y="-428"/>
      <point x="90" y="-428" type="qcurve" smooth="yes"/>
    </contour>
  </outline>
</glyph>
<glyph name="uni0306" format="2">
  <unicode hex="0306"/>
  <anchor x="82" y="1150" name="_top"/>
  <anchor x="138" y="1465" name="top"/>
  <outline>
    <contour>
      <point x="-103" y="1365" type="line"/>
      <point x="-116" y="1292"/>
      <point x="-112" y="1201"/>
      <point x="-71" y="1151"/>
      <point x="13" y="1134"/>
      <point x="80" y="1134" type="qcurve" smooth="yes"/>
      <point x="148" y="1134"/>
      <point x="237" y="1151"/>
      <point x="296" y="1201"/>
      <point x="330" y="1292"/>
      <point x="343" y="1365" type="qcurve"/>
      <point x="311" y="1365" type="line"/>
      <point x="299" y="1298"/>
      <point x="268" y="1219"/>
      <point x="217" y="1177"/>
      <point x="141" y="1164"/>
      <point x="85" y="1164" type="qcurve" smooth="yes"/>
      <point x="29" y="1164"/>
      <point x="-42" y="1177"/>
      <point x="-79" y="1219"/>
      <point x="-83" y="1298"/>
      <point x="-71" y="1365" type="qcurve"/>
    </contour>
  </outline>
</glyph>
<glyph name="uni0308" format="2">
  <unicode hex="0308"/>
  <anchor x="90" y="1150" name="_top"/>
  <anchor x="143" y="1450" name="_bottom"/>
  <anchor x="125" y="1349" name="top"/>
  <outline>
    <contour>
      <point x="-87" y="1235" type="line" smooth="yes"/>
      <point x="-89" y="1226"/>
      <point x="-89" y="1215"/>
      <point x="-85" y="1210"/>
      <point x="-75" y="1209"/>
      <point x="-66" y="1209" type="qcurve" smooth="yes"/>
      <point x="-48" y="1209" type="line" smooth="yes"/>
      <point x="-39" y="1209"/>
      <point x="-28" y="1210"/>
      <point x="-22" y="1215"/>
      <point x="-19" y="1226"/>
      <point x="-17" y="1235" type="qcurve" smooth="yes"/>
      <point x="-14" y="1253" type="line" smooth="yes"/>
      <point x="-12" y="1262"/>
      <point x="-11" y="1273"/>
      <point x="-15" y="1278"/>
      <point x="-25" y="1279"/>
      <point x="-34" y="1279" type="qcurve" smooth="yes"/>
      <point x="-53" y="1279" type="line" smooth="yes"/>
      <point x="-62" y="1279"/>
      <point x="-73" y="1278"/>
      <point x="-79" y="1273"/>
      <point x="-82" y="1262"/>
      <point x="-84" y="1253" type="qcurve" smooth="yes"/>
    </contour>
    <contour>
      <point x="227" y="1235" type="line" smooth="yes"/>
      <point x="226" y="1226"/>
      <point x="225" y="1215"/>
      <point x="229" y="1210"/>
      <point x="239" y="1209"/>
      <point x="248" y="1209" type="qcurve" smooth="yes"/>
      <point x="266" y="1209" type="line" smooth="yes"/>
      <point x="275" y="1209"/>
      <point x="286" y="1210"/>
      <point x="292" y="1215"/>
      <point x="296" y="1226"/>
      <point x="297" y="1235" type="qcurve" smooth="yes"/>
      <point x="300" y="1253" type="line" smooth="yes"/>
      <point x="302" y="1262"/>
      <point x="303" y="1273"/>
      <point x="299" y="1278"/>
      <point x="289" y="1279"/>
      <point x="280" y="1279" type="qcurve" smooth="yes"/>
      <point x="261" y="1279" type="line" smooth="yes"/>
      <point x="252" y="1279"/>
      <point x="241" y="1278"/>
      <point x="235" y="1273"/>
      <point x="232" y="1262"/>
      <point x="230" y="1253" type="qcurve" smooth="yes"/>
    </contour>
  </outline>
</glyph>
<glyph name="uni031B" format="2">
  <unicode hex="031B"/>
  <anchor x="58" y="1000" name="_horn"/>
  <outline>
    <contour>
      <point x="53" y="970" type="line"/>
      <point x="124" y="970"/>
      <point x="230" y="995"/>
      <point x="303" y="1049"/>
      <point x="348" y="1133"/>
      <point x="358" y="1192" type="qcurve" smooth="yes"/>
      <point x="364" y="1225"/>
      <point x="368" y="1298"/>
      <point x="368" y="1340" type="qcurve"/>
      <point x="335" y="1334" type="line"/>
      <point x="336" y="1293"/>
      <point x="331" y="1223"/>
      <point x="326" y="1194" type="qcurve" smooth="yes"/>
      <point x="317" y="1139"/>
      <point x="276" y="1065"/>
      <point x="211" y="1020"/>
      <point x="119" y="1000"/>
      <point x="58" y="1000" type="qcurve"/>
    </contour>
  </outline>
</glyph>
<glyph name="uni0409" format="2">
  <advance width="2326"/>
  <unicode hex="0409"/>
  <outline>
    <contour>
      <point x="-120" y="0" type="line"/>
      <point x="-73" y="0" type="line"/>
      <point x="911" y="1364" type="line"/>
      <point x="1179" y="1364" type="line"/>
      <point x="941" y="0" type="line"/>
      <point x="1685" y="0" type="line" smooth="yes"/>
      <point x="1760" y="0"/>
      <point x="1877" y="38"/>
      <point x="1962" y="112"/>
      <point x="2017" y="221"/>
      <point x="2029" y="293" type="qcurve" smooth="yes"/>
      <point x="2063" y="485" type="line" smooth="yes"/>
      <point x="2075" y="557"/>
      <point x="2059" y="666"/>
      <point x="2000" y="740"/>
      <point x="1896" y="778"/>
      <point x="1821" y="778" type="qcurve" smooth="yes"/>
      <point x="1117" y="778" type="line"/>
      <point x="1225" y="1400" type="line"/>
      <point x="890" y="1400" type="line"/>
    </contour>
    <contour>
      <point x="987" y="36" type="line"/>
      <point x="1111" y="742" type="line"/>
      <point x="1813" y="742" type="line" smooth="yes"/>
      <point x="1879" y="742"/>
      <point x="1969" y="710"/>
      <point x="2020" y="645"/>
      <point x="2034" y="550"/>
      <point x="2023" y="487" type="qcurve" smooth="yes"/>
      <point x="1989" y="291" type="line" smooth="yes"/>
      <point x="1978" y="228"/>
      <point x="1931" y="133"/>
      <point x="1857" y="68"/>
      <point x="1755" y="36"/>
      <point x="1689" y="36" type="qcurve" smooth="yes"/>
    </contour>
  </outline>
</glyph>
<glyph name="uni040F" format="2">
  <advance width="1728"/>
  <unicode hex="040F"/>
  <outline>
    <contour>
      <point x="165" y="0" type="line"/>
      <point x="727" y="0" type="line"/>
      <point x="684" y="-260" type="line"/>
      <point x="717" y="-260" type="line"/>
      <point x="762" y="0" type="line"/>
      <point x="1323" y="0" type="line"/>
      <point x="1567" y="1400" type="line"/>
      <point x="1527" y="1400" type="line"/>
      <point x="1289" y="36" type="line"/>
      <point x="211" y="36" type="line"/>
      <point x="449" y="1400" type="line"/>
      <point x="409" y="1400" type="line"/>
    </contour>
  </outline>
  <guideline x="744" y="0" angle="260.087" color="1,0,0,1"/>
</glyph>
<glyph name="uni0429" format="2">
  <advance width="2311"/>
  <unicode hex="0429"/>
  <outline>
    <contour>
      <point x="165" y="0" type="line"/>
      <point x="1980" y="0" type="line"/>
      <point x="1937" y="-260" type="line"/>
      <point x="1970" y="-260" type="line"/>
      <point x="2021" y="36" type="line"/>
      <point x="1871" y="36" type="line"/>
      <point x="2109" y="1400" type="line"/>
      <point x="2069" y="1400" type="line"/>
      <point x="1831" y="36" type="line"/>
      <point x="1041" y="36" type="line"/>
      <point x="1279" y="1400" type="line"/>
      <point x="1239" y="1400" type="line"/>
      <point x="1001" y="36" type="line"/>
      <point x="211" y="36" type="line"/>
      <point x="449" y="1400" type="line"/>
      <point x="409" y="1400" type="line"/>
    </contour>
  </outline>
</glyph>
<glyph name="uni042A" format="2">
  <advance width="1892"/>
  <unicode hex="042A"/>
  <outline>
    <contour>
      <point x="427" y="0" type="line"/>
      <point x="1251" y="0" type="line" smooth="yes"/>
      <point x="1326" y="0"/>
      <point x="1443" y="38"/>
      <point x="1528" y="112"/>
      <point x="1583" y="222"/>
      <point x="1595" y="293" type="qcurve" smooth="yes"/>
      <point x="1632" y="503" type="line" smooth="yes"/>
      <point x="1644" y="574"/>
      <point x="1628" y="684"/>
      <point x="1569" y="758"/>
      <point x="1465" y="796"/>
      <point x="1390" y="796" type="qcurve" smooth="yes"/>
      <point x="606" y="796" type="line"/>
      <point x="711" y="1400" type="line"/>
      <point x="132" y="1400" type="line"/>
      <point x="126" y="1364" type="line"/>
      <point x="665" y="1364" type="line"/>
    </contour>
    <contour>
      <point x="473" y="36" type="line"/>
      <point x="600" y="760" type="line"/>
      <point x="1382" y="760" type="line" smooth="yes"/>
      <point x="1448" y="760"/>
      <point x="1538" y="727"/>
      <point x="1589" y="663"/>
      <point x="1603" y="568"/>
      <point x="1592" y="505" type="qcurve" smooth="yes"/>
      <point x="1555" y="291" type="line" smooth="yes"/>
      <point x="1544" y="228"/>
      <point x="1497" y="133"/>
      <point x="1423" y="69"/>
      <point x="1321" y="36"/>
      <point x="1255" y="36" type="qcurve" smooth="yes"/>
    </contour>
  </outline>
</glyph>
<glyph name="uni042C" format="2">
  <advance width="1664"/>
  <unicode hex="042C"/>
  <outline>
    <contour>
      <point x="165" y="0" type="line"/>
      <point x="1023" y="0" type="line" smooth="yes"/>
      <point x="1098" y="0"/>
      <point x="1215" y="38"/>
      <point x="1300" y="112"/>
      <point x="1355" y="221"/>
      <point x="1367" y="293" type="qcurve" smooth="yes"/>
      <point x="1404" y="503" type="line" smooth="yes"/>
      <point x="1416" y="575"/>
      <point x="1400" y="684"/>
      <point x="1341" y="758"/>
      <point x="1237" y="796"/>
      <point x="1162" y="796" type="qcurve" smooth="yes"/>
      <point x="344" y="796" type="line"/>
      <point x="449" y="1400" type="line"/>
      <point x="409" y="1400" type="line"/>
    </contour>
    <contour>
      <point x="211" y="36" type="line"/>
      <point x="338" y="760" type="line"/>
      <point x="1154" y="760" type="line" smooth="yes"/>
      <point x="1286" y="760"/>
      <point x="1386" y="631"/>
      <point x="1364" y="505" type="qcurve" smooth="yes"/>
      <point x="1327" y="291" type="line" smooth="yes"/>
      <point x="1316" y="228"/>
      <point x="1269" y="133"/>
      <point x="1195" y="68"/>
      <point x="1093" y="36"/>
      <point x="1027" y="36" type="qcurve" smooth="yes"/>
    </contour>
  </outline>
</glyph>
<glyph name="uni042F" format="2">
  <advance width="1757"/>
  <unicode hex="042F"/>
  <outline>
    <contour>
      <point x="146" y="0" type="line"/>
      <point x="204" y="0" type="line"/>
      <point x="958" y="620" type="line"/>
      <point x="1420" y="620" type="line"/>
      <point x="1312" y="0" type="line"/>
      <point x="1352" y="0" type="line"/>
      <point x="1596" y="1400" type="line"/>
      <point x="1576" y="1400" type="line"/>
      <point x="747" y="1400" type="line" smooth="yes"/>
      <point x="672" y="1400"/>
      <point x="555" y="1362"/>
      <point x="470" y="1288"/>
      <point x="416" y="1179"/>
      <point x="403" y="1107" type="qcurve" smooth="yes"/>
      <point x="369" y="913" type="line" smooth="yes"/>
      <point x="357" y="841"/>
      <point x="373" y="732"/>
      <point x="432" y="658"/>
      <point x="536" y="620"/>
      <point x="611" y="620" type="qcurve" smooth="yes"/>
      <point x="900" y="620" type="line"/>
    </contour>
    <contour>
      <point x="619" y="656" type="line" smooth="yes"/>
      <point x="487" y="656"/>
      <point x="387" y="785"/>
      <point x="409" y="911" type="qcurve" smooth="yes"/>
      <point x="444" y="1109" type="line" smooth="yes"/>
      <point x="455" y="1172"/>
      <point x="502" y="1267"/>
      <point x="575" y="1332"/>
      <point x="677" y="1364"/>
      <point x="743" y="1364" type="qcurve" smooth="yes"/>
      <point x="1550" y="1364" type="line"/>
      <point x="1426" y="656" type="line"/>
    </contour>
  </outline>
</glyph>
<glyph name="uni0438" format="2">
  <advance width="1329"/>
  <unicode hex="0438"/>
  <anchor x="749" y="1150" name="top"/>
  <outline>
    <contour>
      <point x="120.469" y="0" type="line"/>
      <point x="151.469" y="0" type="line"/>
      <point x="1104.47" y="944" type="line"/>
      <point x="939.469" y="0" type="line"/>
      <point x="975.469" y="0" type="line"/>
      <point x="1150.47" y="1000" type="line"/>
      <point x="1119.47" y="1000" type="line"/>
      <point x="166.469" y="56" type="line"/>
      <point x="331.469" y="1000" type="line"/>
      <point x="295.469" y="1000" type="line"/>
    </contour>
  </outline>
</glyph>
<glyph name="uni0448" format="2">
  <advance width="1908"/>
  <unicode hex="0448"/>
  <outline>
    <contour>
      <point x="120" y="0" type="line"/>
      <point x="1548" y="0" type="line"/>
      <point x="1723" y="1000" type="line"/>
      <point x="1687" y="1000" type="line"/>
      <point x="1518" y="32" type="line"/>
      <point x="858" y="32" type="line"/>
      <point x="1027" y="1000" type="line"/>
      <point x="991" y="1000" type="line"/>
      <point x="822" y="32" type="line"/>
      <point x="162" y="32" type="line"/>
      <point x="331" y="1000" type="line"/>
      <point x="295" y="1000" type="line"/>
    </contour>
  </outline>
  <guideline y="520" color="1,0,0,1"/>
</glyph>
<glyph name="uni044A" format="2">
  <advance width="1539"/>
  <unicode hex="044A"/>
  <outline>
    <contour>
      <point x="295" y="0" type="line"/>
      <point x="1026" y="0" type="line" smooth="yes"/>
      <point x="1066" y="0"/>
      <point x="1131" y="21"/>
      <point x="1181" y="63"/>
      <point x="1213" y="125"/>
      <point x="1220" y="165" type="qcurve" smooth="yes"/>
      <point x="1283" y="529" type="line" smooth="yes"/>
      <point x="1290" y="569"/>
      <point x="1280" y="631"/>
      <point x="1245" y="673"/>
      <point x="1187" y="694"/>
      <point x="1147" y="694" type="qcurve" smooth="yes"/>
      <point x="514" y="694" type="line" smooth="yes"/>
      <point x="488" y="694"/>
      <point x="458" y="686"/>
      <point x="449" y="678" type="qcurve"/>
      <point x="506" y="1000" type="line"/>
      <point x="56" y="1000" type="line"/>
      <point x="50" y="968" type="line"/>
      <point x="464" y="968" type="line"/>
    </contour>
    <contour>
      <point x="337" y="32" type="line"/>
      <point x="447" y="662" type="line"/>
      <point x="1135" y="662" type="line" smooth="yes"/>
      <point x="1201" y="662"/>
      <point x="1258" y="592"/>
      <point x="1247" y="526" type="qcurve" smooth="yes"/>
      <point x="1184" y="168" type="line" smooth="yes"/>
      <point x="1173" y="102"/>
      <point x="1091" y="32"/>
      <point x="1025" y="32" type="qcurve" smooth="yes"/>
    </contour>
  </outline>
</glyph>
<glyph name="uni044B" format="2">
  <advance width="1876"/>
  <unicode hex="044B"/>
  <anchor x="1019" y="1150" name="top"/>
  <outline>
    <contour>
      <point x="120.469" y="0" type="line"/>
      <point x="851.469" y="0" type="line" smooth="yes"/>
      <point x="891.469" y="0"/>
      <point x="956.469" y="21"/>
      <point x="1006.47" y="63"/>
      <point x="1038.47" y="125"/>
      <point x="1045.47" y="165" type="qcurve" smooth="yes"/>
      <point x="1108.47" y="529" type="line" smooth="yes"/>
      <point x="1115.47" y="569"/>
      <point x="1105.47" y="631"/>
      <point x="1070.47" y="673"/>
      <point x="1012.47" y="694"/>
      <point x="972.469" y="694" type="qcurve" smooth="yes"/>
      <point x="339.469" y="694" type="line" smooth="yes"/>
      <point x="313.469" y="694"/>
      <point x="283.469" y="686"/>
      <point x="274.469" y="678" type="qcurve"/>
      <point x="331.469" y="1000" type="line"/>
      <point x="295.469" y="1000" type="line"/>
    </contour>
    <contour>
      <point x="162.469" y="32" type="line"/>
      <point x="272.469" y="662" type="line"/>
      <point x="960.469" y="662" type="line" smooth="yes"/>
      <point x="1027.47" y="662"/>
      <point x="1083.47" y="593"/>
      <point x="1072.47" y="526" type="qcurve"/>
      <point x="1009.47" y="168" type="line"/>
      <point x="998.469" y="101"/>
      <point x="917.469" y="32"/>
      <point x="850.469" y="32" type="qcurve" smooth="yes"/>
    </contour>
    <contour>
      <point x="1480.47" y="0" type="line"/>
      <point x="1516.47" y="0" type="line"/>
      <point x="1691.47" y="1000" type="line"/>
      <point x="1655.47" y="1000" type="line"/>
    </contour>
  </outline>
  <guideline x="1108" y="529" angle="260.101" color="1,0,0,1"/>
</glyph>
<glyph name="uni044C" format="2">
  <advance width="1364"/>
  <unicode hex="044C"/>
  <outline>
    <contour>
      <point x="120" y="0" type="line"/>
      <point x="851" y="0" type="line" smooth="yes"/>
      <point x="891" y="0"/>
      <point x="956" y="21"/>
      <point x="1006" y="63"/>
      <point x="1038" y="125"/>
      <point x="1045" y="165" type="qcurve" smooth="yes"/>
      <point x="1108" y="529" type="line" smooth="yes"/>
      <point x="1115" y="569"/>
      <point x="1105" y="631"/>
      <point x="1070" y="673"/>
      <point x="1012" y="694"/>
      <point x="972" y="694" type="qcurve" smooth="yes"/>
      <point x="339" y="694" type="line" smooth="yes"/>
      <point x="313" y="694"/>
      <point x="283" y="686"/>
      <point x="274" y="678" type="qcurve"/>
      <point x="331" y="1000" type="line"/>
      <point x="295" y="1000" type="line"/>
    </contour>
    <contour>
      <point x="162" y="32" type="line"/>
      <point x="272" y="662" type="line"/>
      <point x="960" y="662" type="line" smooth="yes"/>
      <point x="1026" y="662"/>
      <point x="1083" y="592"/>
      <point x="1072" y="526" type="qcurve" smooth="yes"/>
      <point x="1009" y="168" type="line" smooth="yes"/>
      <point x="998" y="102"/>
      <point x="916" y="32"/>
      <point x="850" y="32" type="qcurve" smooth="yes"/>
    </contour>
  </outline>
</glyph>
<glyph name="uni0454" format="2">
  <advance width="1259"/>
  <unicode hex="0454"/>
  <outline>
    <contour>
      <point x="271.385" y="0" type="line"/>
      <point x="803.385" y="0" type="line" smooth="yes"/>
      <point x="843.385" y="0"/>
      <point x="908.385" y="21"/>
      <point x="958.385" y="63"/>
      <point x="990.385" y="125"/>
      <point x="997.385" y="165" type="qcurve" smooth="yes"/>
      <point x="1019.38" y="290" type="line"/>
      <point x="984.385" y="300" type="line"/>
      <point x="961.385" y="168" type="line" smooth="yes"/>
      <point x="950.385" y="101"/>
      <point x="869.385" y="32"/>
      <point x="802.385" y="32" type="qcurve" smooth="yes"/>
      <point x="284.385" y="32" type="line" smooth="yes"/>
      <point x="217.385" y="32"/>
      <point x="160.385" y="101"/>
      <point x="171.385" y="168" type="qcurve"/>
      <point x="229.385" y="497" type="line"/>
      <point x="766.385" y="497" type="line"/>
      <point x="771.385" y="529" type="line"/>
      <point x="234.385" y="529" type="line"/>
      <point x="287.385" y="832" type="line" smooth="yes"/>
      <point x="299.385" y="899"/>
      <point x="380.385" y="968"/>
      <point x="447.385" y="968" type="qcurve" smooth="yes"/>
      <point x="961.385" y="968" type="line" smooth="yes"/>
      <point x="1028.38" y="968"/>
      <point x="1085.38" y="899"/>
      <point x="1073.38" y="832" type="qcurve" smooth="yes"/>
      <point x="1054.38" y="722" type="line"/>
      <point x="1091.38" y="730" type="line"/>
      <point x="1110.38" y="835" type="line" smooth="yes"/>
      <point x="1117.38" y="875"/>
      <point x="1106.38" y="937"/>
      <point x="1072.38" y="979"/>
      <point x="1014.38" y="1000"/>
      <point x="974.385" y="1000" type="qcurve" smooth="yes"/>
      <point x="446.385" y="1000" type="line" smooth="yes"/>
      <point x="406.385" y="1000"/>
      <point x="340.385" y="979"/>
      <point x="291.385" y="937"/>
      <point x="259.385" y="875"/>
      <point x="252.385" y="835" type="qcurve" smooth="yes"/>
      <point x="135.385" y="165" type="line" smooth="yes"/>
      <point x="128.385" y="125"/>
      <point x="139.385" y="63"/>
      <point x="173.385" y="21"/>
      <point x="231.385" y="0"/>
      <point x="271.385" y="0" type="qcurve"/>
    </contour>
  </outline>
  <guideline x="2988" y="-0" angle="260.11" color="1,0,0,1"/>
</glyph>
<glyph name="uni045A" format="2">
  <advance width="2186"/>
  <unicode hex="045A"/>
  <outline>
    <contour>
      <point x="120" y="0" type="line"/>
      <point x="156" y="0" type="line"/>
      <point x="244" y="504" type="line"/>
      <point x="1030" y="504" type="line"/>
      <point x="942" y="0" type="line"/>
      <point x="1673" y="0" type="line" smooth="yes"/>
      <point x="1713" y="0"/>
      <point x="1778" y="21"/>
      <point x="1828" y="63"/>
      <point x="1860" y="125"/>
      <point x="1867" y="165" type="qcurve" smooth="yes"/>
      <point x="1930" y="529" type="line" smooth="yes"/>
      <point x="1937" y="569"/>
      <point x="1927" y="631"/>
      <point x="1892" y="673"/>
      <point x="1834" y="694"/>
      <point x="1794" y="694" type="qcurve" smooth="yes"/>
      <point x="1161" y="694" type="line" smooth="yes"/>
      <point x="1135" y="694"/>
      <point x="1105" y="686"/>
      <point x="1096" y="678" type="qcurve"/>
      <point x="1153" y="1000" type="line"/>
      <point x="1117" y="1000" type="line"/>
      <point x="1036" y="536" type="line"/>
      <point x="250" y="536" type="line"/>
      <point x="331" y="1000" type="line"/>
      <point x="295" y="1000" type="line"/>
    </contour>
    <contour>
      <point x="984" y="32" type="line"/>
      <point x="1094" y="662" type="line"/>
      <point x="1782" y="662" type="line" smooth="yes"/>
      <point x="1848" y="662"/>
      <point x="1905" y="592"/>
      <point x="1894" y="526" type="qcurve" smooth="yes"/>
      <point x="1831" y="168" type="line" smooth="yes"/>
      <point x="1820" y="102"/>
      <point x="1738" y="32"/>
      <point x="1672" y="32" type="qcurve" smooth="yes"/>
    </contour>
  </outline>
  <guideline x="1117" y="1000" angle="260.078" color="1,0,0,1"/>
</glyph>
<glyph name="uni0474" format="2">
  <advance width="1557"/>
  <unicode hex="0474"/>
  <outline>
    <contour>
      <point x="585" y="0" type="line"/>
      <point x="603" y="0" type="line"/>
      <point x="1437" y="1269" type="line"/>
      <point x="1455" y="1295"/>
      <point x="1490" y="1332"/>
      <point x="1531" y="1354"/>
      <point x="1578" y="1364"/>
      <point x="1607" y="1364" type="qcurve" smooth="yes"/>
      <point x="1667" y="1364" type="line"/>
      <point x="1684" y="1400" type="line"/>
      <point x="1614" y="1400" type="line" smooth="yes"/>
      <point x="1579" y="1400"/>
      <point x="1521" y="1387"/>
      <point x="1472" y="1359"/>
      <point x="1428" y="1315"/>
      <point x="1407" y="1283" type="qcurve" smooth="yes"/>
      <point x="603" y="59" type="line"/>
      <point x="171" y="1400" type="line"/>
      <point x="127" y="1400" type="line"/>
    </contour>
  </outline>
</glyph>
<glyph name="uni0475" format="2">
  <advance width="1135"/>
  <unicode hex="0475"/>
  <outline>
    <contour>
      <point x="383" y="0" type="line"/>
      <point x="419" y="0" type="line"/>
      <point x="1019" y="903" type="line" smooth="yes"/>
      <point x="1031" y="921"/>
      <point x="1054" y="946"/>
      <point x="1079" y="961"/>
      <point x="1110" y="968"/>
      <point x="1130" y="968" type="qcurve" smooth="yes"/>
      <point x="1176" y="968" type="line"/>
      <point x="1191" y="1000" type="line"/>
      <point x="1137" y="1000" type="line" smooth="yes"/>
      <point x="1112" y="1000"/>
      <point x="1069" y="991"/>
      <point x="1033" y="970"/>
      <point x="1001" y="938"/>
      <point x="986" y="915" type="qcurve" smooth="yes"/>
      <point x="408" y="43" type="line"/>
      <point x="95" y="1000" type="line"/>
      <point x="56" y="1000" type="line"/>
    </contour>
  </outline>
</glyph>
<glyph name="uni0490" format="2">
  <advance width="1307"/>
  <unicode hex="0490"/>
  <outline>
    <contour>
      <point x="165" y="0" type="line"/>
      <point x="205" y="0" type="line"/>
      <point x="443" y="1364" type="line"/>
      <point x="1423" y="1364" type="line"/>
      <point x="1461" y="1582" type="line"/>
      <point x="1428" y="1582" type="line"/>
      <point x="1394" y="1400" type="line"/>
      <point x="409" y="1400" type="line"/>
    </contour>
  </outline>
  <guideline y="1364" color="1,0,0,1"/>
</glyph>
<glyph name="uni04B8" format="2">
  <advance width="1674"/>
  <unicode hex="04B8"/>
  <outline>
    <contour>
      <point x="1229" y="0" type="line"/>
      <point x="1269" y="0" type="line"/>
      <point x="1513" y="1400" type="line"/>
      <point x="1473" y="1400" type="line"/>
      <point x="1335" y="608" type="line"/>
      <point x="831" y="608" type="line"/>
      <point x="920" y="1120" type="line"/>
      <point x="884" y="1120" type="line"/>
      <point x="795" y="608" type="line"/>
      <point x="546" y="608" type="line" smooth="yes"/>
      <point x="480" y="608"/>
      <point x="389" y="640"/>
      <point x="338" y="705"/>
      <point x="325" y="800"/>
      <point x="336" y="863" type="qcurve" smooth="yes"/>
      <point x="429" y="1400" type="line"/>
      <point x="389" y="1400" type="line"/>
      <point x="296" y="865" type="line" smooth="yes"/>
      <point x="284" y="793"/>
      <point x="300" y="684"/>
      <point x="359" y="610"/>
      <point x="463" y="572"/>
      <point x="538" y="572" type="qcurve" smooth="yes"/>
      <point x="789" y="572" type="line"/>
      <point x="738" y="280" type="line"/>
      <point x="774" y="280" type="line"/>
      <point x="825" y="572" type="line"/>
      <point x="1329" y="572" type="line"/>
    </contour>
  </outline>
</glyph>
<glyph name="dagger" format="2">
  <advance width="800"/>
  <unicode hex="2020"/>
  <outline>
    <contour>
      <point x="225" y="-214" type="line"/>
      <point x="399" y="784" type="line"/>
      <point x="24" y="784" type="line"/>
      <point x="30" y="820" type="line"/>
      <point x="405" y="820" type="line"/>
      <point x="489" y="1300" type="line"/>
      <point x="529" y="1300" type="line"/>
      <point x="445" y="820" type="line"/>
      <point x="820" y="820" type="line"/>
      <point x="814" y="784" type="line"/>
      <point x="439" y="784" type="line"/>
      <point x="265" y="-214" type="line"/>
    </contour>
  </outline>
</glyph>
<glyph name="uni20A9" format="2">
  <advance width="1786"/>
  <unicode hex="20A9"/>
  <outline>
    <component base="W" xOffset="10"/>
    <contour>
      <point x="124" y="701" type="line"/>
      <point x="1696" y="701" type="line"/>
      <point x="1703" y="737" type="line"/>
      <point x="131" y="737" type="line"/>
    </contour>
  </outline>
  <guideline y="988"/>
</glyph>
<glyph name="uni25C7" format="2">
  <advance width="1545"/>
  <unicode hex="25C7"/>
  <outline>
    <contour>
      <point x="642" y="-62" type="line"/>
      <point x="1538" y="700" type="line"/>
      <point x="908" y="1463" type="line"/>
      <point x="13" y="700" type="line"/>
    </contour>
    <contour>
      <point x="651" y="-9" type="line"/>
      <point x="67" y="700" type="line"/>
      <point x="899" y="1409" type="line"/>
      <point x="1485" y="700" type="line"/>
    </contour>
  </outline>
</glyph>
<glyph name="uni27E8" format="2">
  <advance width="653"/>
  <unicode hex="27E8"/>
  <outline>
    <contour>
      <point x="392.086" y="0" type="line"/>
      <point x="430.086" y="0" type="line"/>
      <point x="137.086" y="700" type="line"/>
      <point x="674.086" y="1400" type="line"/>
      <point x="636.086" y="1400" type="line"/>
      <point x="99.0858" y="700" type="line"/>
    </contour>
  </outline>
</glyph>
<glyph name="eight.dnom" format="2">
  <advance width="1105"/>
  <outline>
    <contour>
      <point x="145.649" y="158" type="line" smooth="yes"/>
      <point x="138.649" y="121"/>
      <point x="154.649" y="71"/>
      <point x="193.649" y="41"/>
      <point x="251.649" y="29"/>
      <point x="285.649" y="29" type="qcurve" smooth="yes"/>
      <point x="586.649" y="29" type="line" smooth="yes"/>
      <point x="621.649" y="29"/>
      <point x="683.649" y="41"/>
      <point x="732.649" y="71"/>
      <point x="766.649" y="121"/>
      <point x="773.649" y="158" type="qcurve" smooth="yes"/>
      <point x="791.649" y="265" type="line" smooth="yes"/>
      <point x="798.649" y="304"/>
      <point x="775.649" y="351"/>
      <point x="735.649" y="376"/>
      <point x="687.649" y="383"/>
      <point x="670.649" y="383" type="qcurve" smooth="yes"/>
      <point x="326.649" y="383" type="line" smooth="yes"/>
      <point x="309.649" y="383"/>
      <point x="259.649" y="376"/>
      <point x="210.649" y="351"/>
      <point x="170.649" y="304"/>
      <point x="163.649" y="265" type="qcurve" smooth="yes"/>
    </contour>
    <contour>
      <point x="839.649" y="633" type="line" smooth="yes"/>
      <point x="844.649" y="660"/>
      <point x="833.649" y="705"/>
      <point x="800.649" y="737"/>
      <point x="746.649" y="755"/>
      <point x="707.649" y="755" type="qcurve" smooth="yes"/>
      <point x="419.649" y="755" type="line" smooth="yes"/>
      <point x="380.649" y="755"/>
      <point x="319.649" y="737"/>
      <point x="276.649" y="705"/>
      <point x="250.649" y="660"/>
      <point x="245.649" y="633" type="qcurve" smooth="yes"/>
      <point x="228.649" y="536" type="line" smooth="yes"/>
      <point x="223.649" y="508"/>
      <point x="232.649" y="463"/>
      <point x="263.649" y="431"/>
      <point x="318.649" y="413"/>
      <point x="359.649" y="413" type="qcurve" smooth="yes"/>
      <point x="647.649" y="413" type="line" smooth="yes"/>
      <point x="688.649" y="413"/>
      <point x="749.649" y="431"/>
      <point x="792.649" y="463"/>
      <point x="817.649" y="508"/>
      <point x="822.649" y="536" type="qcurve" smooth="yes"/>
    </contour>
    <contour>
      <point x="110.649" y="156" type="line"/>
      <point x="128.649" y="256" type="line" smooth="yes"/>
      <point x="135.649" y="294"/>
      <point x="166.649" y="347"/>
      <point x="208.649" y="381"/>
      <point x="258.649" y="399"/>
      <point x="284.649" y="401" type="qcurve"/>
      <point x="234.649" y="407"/>
      <point x="184.649" y="482"/>
      <point x="194.649" y="540" type="qcurve" smooth="yes"/>
      <point x="211.649" y="635" type="line" smooth="yes"/>
      <point x="223.649" y="704"/>
      <point x="328.649" y="785"/>
      <point x="421.649" y="785" type="qcurve" smooth="yes"/>
      <point x="714.649" y="785" type="line" smooth="yes"/>
      <point x="807.649" y="785"/>
      <point x="885.649" y="704"/>
      <point x="873.649" y="635" type="qcurve" smooth="yes"/>
      <point x="856.649" y="540" type="line" smooth="yes"/>
      <point x="851.649" y="511"/>
      <point x="826.649" y="463"/>
      <point x="790.649" y="427"/>
      <point x="744.649" y="404"/>
      <point x="718.649" y="401" type="qcurve"/>
      <point x="743.649" y="399"/>
      <point x="788.649" y="381"/>
      <point x="818.649" y="347"/>
      <point x="831.649" y="294"/>
      <point x="824.649" y="256" type="qcurve" smooth="yes"/>
      <point x="806.649" y="156" type="line" smooth="yes"/>
      <point x="798.649" y="111"/>
      <point x="758.649" y="51"/>
      <point x="700.649" y="14"/>
      <point x="625.649" y="-1"/>
      <point x="583.649" y="-1" type="qcurve" smooth="yes"/>
      <point x="279.649" y="-1" type="line" smooth="yes"/>
      <point x="237.649" y="-1"/>
      <point x="168.649" y="14"/>
      <point x="121.649" y="51"/>
      <point x="102.649" y="111"/>
      <point x="110.649" y="156" type="qcurve"/>
    </contour>
  </outline>
</glyph>
<glyph name="f.sc" format="2">
  <advance width="1158"/>
  <outline>
    <contour>
      <point x="164" y="0" type="line"/>
      <point x="349" y="1060" type="line"/>
      <point x="1220" y="1060" type="line"/>
      <point x="1214" y="1027" type="line"/>
      <point x="380" y="1027" type="line"/>
      <point x="298" y="558" type="line"/>
      <point x="801" y="558" type="line"/>
      <point x="796" y="525" type="line"/>
      <point x="293" y="525" type="line"/>
      <point x="201" y="0" type="line"/>
    </contour>
  </outline>
</glyph>
<glyph name="five.dnom" format="2">
  <advance width="1035"/>
  <outline>
    <contour>
      <point x="406.794" y="-7" type="line"/>
      <point x="373.794" y="-7"/>
      <point x="292.794" y="-4"/>
      <point x="209.794" y="3"/>
      <point x="129.794" y="16"/>
      <point x="97.7936" y="26" type="qcurve"/>
      <point x="94.7936" y="60" type="line"/>
      <point x="118.794" y="53"/>
      <point x="171.794" y="39"/>
      <point x="242.794" y="29"/>
      <point x="341.794" y="23"/>
      <point x="411.794" y="23" type="qcurve" smooth="yes"/>
      <point x="465.794" y="23"/>
      <point x="568.794" y="41"/>
      <point x="651.794" y="86"/>
      <point x="710.794" y="164"/>
      <point x="721.794" y="225" type="qcurve" smooth="yes"/>
      <point x="732.794" y="288"/>
      <point x="715.794" y="369"/>
      <point x="663.794" y="415"/>
      <point x="578.794" y="432"/>
      <point x="520.794" y="432" type="qcurve" smooth="yes"/>
      <point x="468.794" y="432"/>
      <point x="370.794" y="421"/>
      <point x="276.794" y="405"/>
      <point x="186.794" y="383"/>
      <point x="144.794" y="372" type="qcurve"/>
      <point x="251.794" y="784" type="line"/>
      <point x="765.794" y="784" type="line"/>
      <point x="752.794" y="750" type="line"/>
      <point x="272.794" y="750" type="line"/>
      <point x="185.794" y="412" type="line"/>
      <point x="225.794" y="423"/>
      <point x="310.794" y="441"/>
      <point x="398.794" y="455"/>
      <point x="485.794" y="462"/>
      <point x="526.794" y="462" type="qcurve" smooth="yes"/>
      <point x="591.794" y="462"/>
      <point x="688.794" y="441"/>
      <point x="748.794" y="388"/>
      <point x="767.794" y="297"/>
      <point x="755.794" y="226" type="qcurve" smooth="yes"/>
      <point x="742.794" y="152"/>
      <point x="672.794" y="60"/>
      <point x="576.794" y="10"/>
      <point x="463.794" y="-7"/>
      <point x="406.794" y="-7" type="qcurve"/>
    </contour>
  </outline>
</glyph>
<glyph name="g.sc" format="2">
  <advance width="1510" height="1448"/>
  <anchor x="851" y="1210" name="top"/>
  <anchor x="614" y="-150" name="bottom"/>
  <outline>
    <contour>
      <point x="294.081" y="839" type="line"/>
      <point x="187.081" y="221" type="line"/>
      <point x="177.081" y="167"/>
      <point x="191.081" y="84"/>
      <point x="239.081" y="29"/>
      <point x="323.081" y="0"/>
      <point x="383.081" y="0" type="qcurve" smooth="yes"/>
      <point x="896.081" y="0" type="line" smooth="yes"/>
      <point x="956.081" y="0"/>
      <point x="1050.08" y="29"/>
      <point x="1117.08" y="84"/>
      <point x="1160.08" y="167"/>
      <point x="1170.08" y="221" type="qcurve" smooth="yes"/>
      <point x="1224.08" y="533" type="line"/>
      <point x="729.081" y="533" type="line"/>
      <point x="723.081" y="500" type="line"/>
      <point x="1181.08" y="500" type="line"/>
      <point x="1132.08" y="218" type="line" smooth="yes"/>
      <point x="1116.08" y="127"/>
      <point x="1005.08" y="33"/>
      <point x="902.081" y="33" type="qcurve" smooth="yes"/>
      <point x="389.081" y="33" type="line" smooth="yes"/>
      <point x="286.081" y="33"/>
      <point x="207.081" y="127"/>
      <point x="223.081" y="218" type="qcurve" smooth="yes"/>
      <point x="332.081" y="842" type="line" smooth="yes"/>
      <point x="348.081" y="934"/>
      <point x="459.081" y="1027"/>
      <point x="562.081" y="1027" type="qcurve" smooth="yes"/>
      <point x="1075.08" y="1027" type="line" smooth="yes"/>
      <point x="1178.08" y="1027"/>
      <point x="1257.08" y="934"/>
      <point x="1241.08" y="842" type="qcurve" smooth="yes"/>
      <point x="1226.08" y="757" type="line"/>
      <point x="1264.08" y="764" type="line"/>
      <point x="1277.08" y="839" type="line" smooth="yes"/>
      <point x="1287.08" y="893"/>
      <point x="1273.08" y="976"/>
      <point x="1225.08" y="1031"/>
      <point x="1141.08" y="1060"/>
      <point x="1081.08" y="1060" type="qcurve" smooth="yes"/>
      <point x="568.081" y="1060" type="line" smooth="yes"/>
      <point x="508.081" y="1060"/>
      <point x="415.081" y="1031"/>
      <point x="347.081" y="976"/>
      <point x="304.081" y="893"/>
      <point x="294.081" y="839" type="qcurve"/>
    </contour>
  </outline>
</glyph>
<glyph name="m.sc" format="2">
  <advance width="1664"/>
  <anchor x="923" y="1210" name="top"/>
  <anchor x="686" y="-150" name="bottom"/>
  <anchor x="157" y="530" name="left"/>
  <outline>
    <contour>
      <point x="164.049" y="0" type="line"/>
      <point x="201.049" y="0" type="line"/>
      <point x="374.049" y="990" type="line"/>
      <point x="759.049" y="267" type="line"/>
      <point x="1395.05" y="992" type="line"/>
      <point x="1222.05" y="0" type="line"/>
      <point x="1259.05" y="0" type="line"/>
      <point x="1444.05" y="1060" type="line"/>
      <point x="1415.05" y="1060" type="line"/>
      <point x="772.049" y="328" type="line"/>
      <point x="383.049" y="1060" type="line"/>
      <point x="349.049" y="1060" type="line"/>
    </contour>
  </outline>
</glyph>
<glyph name="nine.dnom" format="2">
  <advance width="1061"/>
  <outline>
    <contour>
      <point x="529.31" y="786" type="line"/>
      <point x="469.31" y="786"/>
      <point x="373.31" y="782"/>
      <point x="300.31" y="769"/>
      <point x="246.31" y="742"/>
      <point x="208.31" y="697"/>
      <point x="182.31" y="629"/>
      <point x="174.31" y="581" type="qcurve" smooth="yes"/>
      <point x="162.31" y="510"/>
      <point x="177.31" y="424"/>
      <point x="238.31" y="378"/>
      <point x="351.31" y="363"/>
      <point x="436.31" y="363" type="qcurve" smooth="yes"/>
      <point x="499.31" y="363"/>
      <point x="598.31" y="372"/>
      <point x="679.31" y="387"/>
      <point x="747.31" y="406"/>
      <point x="778.31" y="417" type="qcurve"/>
      <point x="783.31" y="448" type="line"/>
      <point x="747.31" y="436"/>
      <point x="671.31" y="416"/>
      <point x="589.31" y="401"/>
      <point x="496.31" y="393"/>
      <point x="442.31" y="393" type="qcurve" smooth="yes"/>
      <point x="361.31" y="393"/>
      <point x="260.31" y="404"/>
      <point x="207.31" y="442"/>
      <point x="197.31" y="513"/>
      <point x="207.31" y="574" type="qcurve" smooth="yes"/>
      <point x="214.31" y="615"/>
      <point x="234.31" y="674"/>
      <point x="267.31" y="715"/>
      <point x="314.31" y="739"/>
      <point x="384.31" y="752"/>
      <point x="479.31" y="756"/>
      <point x="542.31" y="756" type="qcurve" smooth="yes"/>
      <point x="605.31" y="756"/>
      <point x="694.31" y="747"/>
      <point x="753.31" y="724"/>
      <point x="784.31" y="686"/>
      <point x="793.31" y="627"/>
      <point x="786.31" y="546"/>
      <point x="776.31" y="492" type="qcurve"/>
      <point x="763.31" y="414"/>
      <point x="720.31" y="284"/>
      <point x="658.31" y="181"/>
      <point x="577.31" y="104"/>
      <point x="473.31" y="53"/>
      <point x="346.31" y="27"/>
      <point x="269.31" y="27" type="qcurve" smooth="yes"/>
      <point x="259.31" y="27"/>
      <point x="241.31" y="27"/>
      <point x="226.31" y="28"/>
      <point x="214.31" y="29"/>
      <point x="211.31" y="30" type="qcurve"/>
      <point x="225.31" y="-1" type="line"/>
      <point x="228.31" y="-1"/>
      <point x="237.31" y="-2"/>
      <point x="249.31" y="-3"/>
      <point x="263.31" y="-3"/>
      <point x="271.31" y="-3" type="qcurve" smooth="yes"/>
      <point x="390.31" y="-3"/>
      <point x="572.31" y="58"/>
      <point x="704.31" y="179"/>
      <point x="788.31" y="360"/>
      <point x="809.31" y="480" type="qcurve" smooth="yes"/>
      <point x="820.31" y="541"/>
      <point x="828.31" y="633"/>
      <point x="816.31" y="701"/>
      <point x="779.31" y="747"/>
      <point x="709.31" y="774"/>
      <point x="604.31" y="786"/>
      <point x="529.31" y="786" type="qcurve"/>
    </contour>
  </outline>
</glyph>
<glyph name="periodcentered.loclCAT" format="2">
  <anchor x="81" y="1150" name="_top"/>
  <anchor x="133" y="1450" name="_bottom"/>
  <anchor x="98" y="1249" name="_eldot"/>
  <outline>
    <contour>
      <point x="67" y="1243" type="line"/>
      <point x="69" y="1254" type="line" smooth="yes"/>
      <point x="71" y="1263"/>
      <point x="73" y="1273"/>
      <point x="78" y="1277"/>
      <point x="88" y="1278"/>
      <point x="97" y="1278" type="qcurve" smooth="yes"/>
      <point x="109" y="1278" type="line" smooth="yes"/>
      <point x="118" y="1278"/>
      <point x="128" y="1277"/>
      <point x="131" y="1273"/>
      <point x="131" y="1263"/>
      <point x="129" y="1254" type="qcurve" smooth="yes"/>
      <point x="127" y="1243" type="line" smooth="yes"/>
      <point x="126" y="1234"/>
      <point x="123" y="1224"/>
      <point x="118" y="1220"/>
      <point x="108" y="1219"/>
      <point x="99" y="1219" type="qcurve" smooth="yes"/>
      <point x="87" y="1219" type="line" smooth="yes"/>
      <point x="78" y="1219"/>
      <point x="68" y="1220"/>
      <point x="65" y="1224"/>
      <point x="66" y="1234"/>
      <point x="67" y="1243" type="qcurve"/>
    </contour>
  </outline>
</glyph>
<glyph name="seven.dnom" format="2">
  <advance width="722"/>
  <outline>
    <contour>
      <point x="61.8037" y="621" type="line"/>
      <point x="94.8037" y="613" type="line"/>
      <point x="118.804" y="754" type="line"/>
      <point x="684.804" y="754" type="line"/>
      <point x="153.804" y="0" type="line"/>
      <point x="194.804" y="0" type="line"/>
      <point x="732.804" y="763" type="line"/>
      <point x="736.804" y="784" type="line"/>
      <point x="90.8037" y="784" type="line"/>
    </contour>
  </outline>
  <guideline x="361" name="halfwidth" color="0.4,0.4,0.4,1"/>
</glyph>
<glyph name="two.dnom" format="2">
  <advance width="1058"/>
  <outline>
    <contour>
      <point x="106" y="0" type="line"/>
      <point x="125" y="107" type="line" smooth="yes"/>
      <point x="130" y="137"/>
      <point x="150" y="188"/>
      <point x="186" y="232"/>
      <point x="242" y="268"/>
      <point x="283" y="284" type="qcurve" smooth="yes"/>
      <point x="651" y="424" type="line" smooth="yes"/>
      <point x="694" y="440"/>
      <point x="750" y="470"/>
      <point x="786" y="504"/>
      <point x="805" y="547"/>
      <point x="810" y="577" type="qcurve" smooth="yes"/>
      <point x="818" y="627" type="line" smooth="yes"/>
      <point x="829" y="690"/>
      <point x="776" y="755"/>
      <point x="705" y="755" type="qcurve" smooth="yes"/>
      <point x="413" y="755" type="line" smooth="yes"/>
      <point x="342" y="755"/>
      <point x="265" y="690"/>
      <point x="254" y="627" type="qcurve" smooth="yes"/>
      <point x="242" y="558" type="line"/>
      <point x="209" y="565" type="line"/>
      <point x="219" y="622" type="line" smooth="yes"/>
      <point x="226" y="662"/>
      <point x="257" y="723"/>
      <point x="307" y="764"/>
      <point x="375" y="785"/>
      <point x="418" y="785" type="qcurve" smooth="yes"/>
      <point x="709" y="785" type="line" smooth="yes"/>
      <point x="753" y="785"/>
      <point x="814" y="764"/>
      <point x="850" y="723"/>
      <point x="860" y="663"/>
      <point x="853" y="623" type="qcurve" smooth="yes"/>
      <point x="844" y="573" type="line" smooth="yes"/>
      <point x="838" y="540"/>
      <point x="813" y="489"/>
      <point x="770" y="448"/>
      <point x="707" y="414"/>
      <point x="663" y="397" type="qcurve" smooth="yes"/>
      <point x="293" y="256" type="line" smooth="yes"/>
      <point x="259" y="243"/>
      <point x="212" y="212"/>
      <point x="181" y="175"/>
      <point x="164" y="130"/>
      <point x="159" y="103" type="qcurve" smooth="yes"/>
      <point x="146" y="30" type="line"/>
      <point x="661" y="30" type="line" smooth="yes"/>
      <point x="691" y="30"/>
      <point x="732" y="62"/>
      <point x="737" y="88" type="qcurve" smooth="yes"/>
      <point x="746" y="138" type="line"/>
      <point x="779" y="130" type="line"/>
      <point x="772" y="92" type="line" smooth="yes"/>
      <point x="768" y="70"/>
      <point x="748" y="36"/>
      <point x="718" y="12"/>
      <point x="678" y="0"/>
      <point x="654" y="0" type="qcurve" smooth="yes"/>
    </contour>
  </outline>
</glyph>
<glyph name="uni0302.case" format="2">
  <anchor x="79" y="1150" name="_top"/>
  <anchor x="404" y="1185" name="topright"/>
  <anchor x="138" y="1480" name="top"/>
  <anchor x="150" y="1550" name="_bottom"/>
  <outline>
    <contour>
      <point x="-250" y="1085" type="line"/>
      <point x="100" y="1400" type="line"/>
      <point x="146" y="1400" type="line"/>
      <point x="386" y="1085" type="line"/>
      <point x="335" y="1085" type="line"/>
      <point x="117" y="1376" type="line"/>
      <point x="-200" y="1085" type="line"/>
    </contour>
  </outline>
</glyph>
<glyph name="uni0309.case" format="2">
  <anchor x="78" y="1150" name="_top"/>
  <anchor x="35" y="1116" name="_topright"/>
  <outline>
    <contour>
      <point x="35" y="1116" type="line"/>
      <point x="93" y="1116" type="line"/>
      <point x="120" y="1129"/>
      <point x="168" y="1165"/>
      <point x="205" y="1208"/>
      <point x="231" y="1257"/>
      <point x="236" y="1283" type="qcurve" smooth="yes"/>
      <point x="241" y="1315"/>
      <point x="231" y="1363"/>
      <point x="201" y="1397"/>
      <point x="150" y="1414"/>
      <point x="115" y="1414" type="qcurve" smooth="yes"/>
      <point x="94" y="1414"/>
      <point x="60" y="1409"/>
      <point x="30" y="1400"/>
      <point x="4" y="1388"/>
      <point x="-10" y="1381" type="qcurve"/>
      <point x="0" y="1353" type="line"/>
      <point x="12" y="1359"/>
      <point x="37" y="1370"/>
      <point x="64" y="1378"/>
      <point x="93" y="1382"/>
      <point x="109" y="1382" type="qcurve" smooth="yes"/>
      <point x="135" y="1382"/>
      <point x="173" y="1369"/>
      <point x="196" y="1344"/>
      <point x="204" y="1307"/>
      <point x="200" y="1283" type="qcurve" smooth="yes"/>
      <point x="195" y="1255"/>
      <point x="166" y="1208"/>
      <point x="123" y="1168"/>
      <point x="68" y="1133"/>
      <point x="35" y="1116" type="qcurve"/>
    </contour>
  </outline>
</glyph>
<glyph name="uni0437.sc" format="2">
  <advance width="1470"/>
  <anchor x="849" y="1210" name="top"/>
  <anchor x="642" y="0" name="ogonek"/>
  <outline>
    <contour>
      <point x="216.801" y="301" type="line"/>
      <point x="202.801" y="221" type="line" smooth="yes"/>
      <point x="192.801" y="167"/>
      <point x="206.801" y="84"/>
      <point x="254.801" y="28"/>
      <point x="338.801" y="0"/>
      <point x="398.801" y="0" type="qcurve" smooth="yes"/>
      <point x="855.801" y="0" type="line" smooth="yes"/>
      <point x="915.801" y="0"/>
      <point x="1006.8" y="26"/>
      <point x="1071.8" y="79"/>
      <point x="1111.8" y="160"/>
      <point x="1121.8" y="215" type="qcurve" smooth="yes"/>
      <point x="1151.8" y="389" type="line" smooth="yes"/>
      <point x="1157.8" y="426"/>
      <point x="1151.8" y="482"/>
      <point x="1124.8" y="523"/>
      <point x="1077.8" y="551"/>
      <point x="1043.8" y="560" type="qcurve"/>
      <point x="1076.8" y="569"/>
      <point x="1128.8" y="597"/>
      <point x="1166.8" y="638"/>
      <point x="1191.8" y="691"/>
      <point x="1197.8" y="726" type="qcurve" smooth="yes"/>
      <point x="1217.8" y="845" type="line" smooth="yes"/>
      <point x="1227.8" y="900"/>
      <point x="1215.8" y="981"/>
      <point x="1169.8" y="1034"/>
      <point x="1087.8" y="1060"/>
      <point x="1027.8" y="1060" type="qcurve" smooth="yes"/>
      <point x="583.801" y="1060" type="line" smooth="yes"/>
      <point x="523.801" y="1060"/>
      <point x="430.801" y="1031"/>
      <point x="362.801" y="976"/>
      <point x="319.801" y="894"/>
      <point x="310.801" y="840" type="qcurve" smooth="yes"/>
      <point x="292.801" y="741" type="line"/>
      <point x="328.801" y="734" type="line"/>
      <point x="347.801" y="841" type="line" smooth="yes"/>
      <point x="363.801" y="933"/>
      <point x="474.801" y="1027"/>
      <point x="577.801" y="1027" type="qcurve" smooth="yes"/>
      <point x="1019.8" y="1027" type="line" smooth="yes"/>
      <point x="1123.8" y="1027"/>
      <point x="1197.8" y="939"/>
      <point x="1181.8" y="846" type="qcurve" smooth="yes"/>
      <point x="1165.8" y="756" type="line" smooth="yes"/>
      <point x="1149.8" y="663"/>
      <point x="1044.8" y="575"/>
      <point x="940.801" y="575" type="qcurve" smooth="yes"/>
      <point x="614.801" y="575" type="line"/>
      <point x="609.801" y="542" type="line"/>
      <point x="948.801" y="542" type="line" smooth="yes"/>
      <point x="1052.8" y="542"/>
      <point x="1126.8" y="454"/>
      <point x="1109.8" y="361" type="qcurve" smooth="yes"/>
      <point x="1083.8" y="214" type="line" smooth="yes"/>
      <point x="1067.8" y="121"/>
      <point x="963.801" y="33"/>
      <point x="859.801" y="33" type="qcurve" smooth="yes"/>
      <point x="404.801" y="33" type="line" smooth="yes"/>
      <point x="301.801" y="33"/>
      <point x="222.801" y="127"/>
      <point x="238.801" y="219" type="qcurve" smooth="yes"/>
      <point x="254.801" y="308" type="line"/>
    </contour>
  </outline>
</glyph>
<glyph name="uni0447.sc" format="2">
  <advance width="1433"/>
  <anchor x="807" y="1210" name="top"/>
  <outline>
    <contour>
      <point x="1011.05" y="0" type="line"/>
      <point x="1048.05" y="0" type="line"/>
      <point x="1233.05" y="1060" type="line"/>
      <point x="1196.05" y="1060" type="line"/>
      <point x="1095.05" y="479" type="line"/>
      <point x="463.049" y="479" type="line" smooth="yes"/>
      <point x="360.049" y="479"/>
      <point x="281.049" y="572"/>
      <point x="297.049" y="665" type="qcurve" smooth="yes"/>
      <point x="366.049" y="1060" type="line"/>
      <point x="329.049" y="1060" type="line"/>
      <point x="260.049" y="667" type="line" smooth="yes"/>
      <point x="251.049" y="613"/>
      <point x="265.049" y="530"/>
      <point x="313.049" y="474"/>
      <point x="397.049" y="446"/>
      <point x="457.049" y="446" type="qcurve" smooth="yes"/>
      <point x="1089.05" y="446" type="line"/>
    </contour>
  </outline>
</glyph>
<glyph name="uni1E9E.c2sc" format="2">
  <advance width="1508"/>
  <outline>
    <contour>
      <point x="164" y="0" type="line"/>
      <point x="201" y="0" type="line"/>
      <point x="348" y="841" type="line" smooth="yes"/>
      <point x="356" y="887"/>
      <point x="391" y="957"/>
      <point x="448" y="1003"/>
      <point x="527" y="1027"/>
      <point x="578" y="1027" type="qcurve" smooth="yes"/>
      <point x="1068" y="1027" type="line" smooth="yes"/>
      <point x="1101" y="1027"/>
      <point x="1155" y="1020"/>
      <point x="1196" y="1005"/>
      <point x="1225" y="982"/>
      <point x="1233" y="966" type="qcurve"/>
      <point x="821" y="530" type="line"/>
      <point x="815" y="500" type="line"/>
      <point x="1011" y="500" type="line" smooth="yes"/>
      <point x="1114" y="500"/>
      <point x="1193" y="406"/>
      <point x="1177" y="314" type="qcurve" smooth="yes"/>
      <point x="1160" y="219" type="line" smooth="yes"/>
      <point x="1144" y="126"/>
      <point x="1033" y="33"/>
      <point x="930" y="33" type="qcurve" smooth="yes"/>
      <point x="487" y="33" type="line"/>
      <point x="481" y="0" type="line"/>
      <point x="924" y="0" type="line" smooth="yes"/>
      <point x="984" y="0"/>
      <point x="1077" y="28"/>
      <point x="1145" y="84"/>
      <point x="1188" y="166"/>
      <point x="1198" y="221" type="qcurve" smooth="yes"/>
      <point x="1213" y="311" type="line" smooth="yes"/>
      <point x="1223" y="366"/>
      <point x="1209" y="449"/>
      <point x="1161" y="505"/>
      <point x="1077" y="533"/>
      <point x="1017" y="533" type="qcurve" smooth="yes"/>
      <point x="863" y="533" type="line"/>
      <point x="1275" y="968" type="line"/>
      <point x="1267" y="991"/>
      <point x="1234" y="1026"/>
      <point x="1185" y="1049"/>
      <point x="1119" y="1060"/>
      <point x="1077" y="1060" type="qcurve" smooth="yes"/>
      <point x="585" y="1060" type="line" smooth="yes"/>
      <point x="525" y="1060"/>
      <point x="431" y="1032"/>
      <point x="363" y="977"/>
      <point x="320" y="894"/>
      <point x="310" y="839" type="qcurve" smooth="yes"/>
    </contour>
  </outline>
</glyph>
